<svg width="147" height="180" viewBox="0 0 147 180" fill="none" xmlns="http://www.w3.org/2000/svg">
<g filter="url(#filter0_d_10_22)">
<path d="M54.0061 3.78632C61.6654 2.56674 68.019 1.55508 70.647 0.850917C74.8861 -0.284937 84.1724 3.93444 93.0173 9.0692C88.3366 10.971 78.673 11.9132 68.0766 12.9462C47.2279 14.9788 22.7682 17.3634 25.5463 28.1026C28.2675 38.6219 41.1274 44.8667 50.4596 49.3985C50.7939 49.5608 51.1236 49.7209 51.4482 49.879C49.9599 51.6447 48.9339 53.528 48.4552 55.163C47.0104 60.0975 52.5234 66.2977 52.5234 66.2977C52.5234 66.2977 57.8632 70.1529 66.16 70.627C66.3024 71.2865 66.5085 72.0701 66.7345 72.9295C67.5878 76.1742 68.7256 80.5005 67.7983 83.3166C66.7064 86.633 64.5358 89.327 62.3876 91.9933C59.6209 95.427 56.8912 98.815 56.5502 103.427C56.323 106.499 56.7953 110.148 57.2807 113.898C58.1071 120.282 58.9715 126.959 56.4865 131.585C54.297 135.66 51.1971 137.982 46.327 139.16C40.7308 140.513 37.5495 141.909 35.2774 147.839C34.167 150.736 38.1156 155.226 39.1106 159.664C39.1106 159.664 29.5567 158.871 20.7063 155.555C15.8242 153.727 11.0615 148.604 16.6593 146.324C32.405 139.91 38.7118 128.87 42.2306 102.344C43.3964 93.556 17.9145 72.6986 9.60354 66.1061L9.81463 64.1451C9.81463 64.1451 7.71584 19.9075 9.81463 14.4243C11.2826 10.5891 36.1806 6.62463 54.0061 3.78632Z" fill="#117CFF"/>
<path d="M54.0061 3.78632C61.6654 2.56674 68.019 1.55508 70.647 0.850917C74.8861 -0.284937 84.1724 3.93444 93.0173 9.0692C88.3366 10.971 78.673 11.9132 68.0766 12.9462C47.2279 14.9788 22.7682 17.3634 25.5463 28.1026C28.2675 38.6219 41.1274 44.8667 50.4596 49.3985C50.7939 49.5608 51.1236 49.7209 51.4482 49.879C49.9599 51.6447 48.9339 53.528 48.4552 55.163C47.0104 60.0975 52.5234 66.2977 52.5234 66.2977C52.5234 66.2977 57.8632 70.1529 66.16 70.627C66.3024 71.2865 66.5085 72.0701 66.7345 72.9295C67.5878 76.1742 68.7256 80.5005 67.7983 83.3166C66.7064 86.633 64.5358 89.327 62.3876 91.9933C59.6209 95.427 56.8912 98.815 56.5502 103.427C56.323 106.499 56.7953 110.148 57.2807 113.898C58.1071 120.282 58.9715 126.959 56.4865 131.585C54.297 135.66 51.1971 137.982 46.327 139.16C40.7308 140.513 37.5495 141.909 35.2774 147.839C34.167 150.736 38.1156 155.226 39.1106 159.664C39.1106 159.664 29.5567 158.871 20.7063 155.555C15.8242 153.727 11.0615 148.604 16.6593 146.324C32.405 139.91 38.7118 128.87 42.2306 102.344C43.3964 93.556 17.9145 72.6986 9.60354 66.1061L9.81463 64.1451C9.81463 64.1451 7.71584 19.9075 9.81463 14.4243C11.2826 10.5891 36.1806 6.62463 54.0061 3.78632Z" fill="black" fill-opacity="0.2"/>
<path d="M73.9085 14.6488C77.8343 14.31 90.469 13.2197 96.2262 10.9821C104.368 15.9603 111.527 21.2689 113.134 23.2124C114.107 24.39 115.736 27.5019 117.562 31.4769C114.586 33.1912 110.808 35.454 106.758 37.8796L106.753 37.883C96.6933 43.9082 84.9585 50.9371 79.6692 53.0607C76.7031 47.0565 65.4062 43.6305 65.4062 43.6305C61.0105 43.3411 57.2354 44.8796 54.3467 47.104C44.2 42.3944 33.2668 36.1869 30.0971 27.411C27.3922 19.9221 72.742 14.7577 72.742 14.7577C72.8373 14.7412 73.2506 14.7056 73.9085 14.6488Z" fill="#117CFF"/>
<path d="M73.9085 14.6488C77.8343 14.31 90.469 13.2197 96.2262 10.9821C104.368 15.9603 111.527 21.2689 113.134 23.2124C114.107 24.39 115.736 27.5019 117.562 31.4769C114.586 33.1912 110.808 35.454 106.758 37.8796L106.753 37.883C96.6933 43.9082 84.9585 50.9371 79.6692 53.0607C76.7031 47.0565 65.4062 43.6305 65.4062 43.6305C61.0105 43.3411 57.2354 44.8796 54.3467 47.104C44.2 42.3944 33.2668 36.1869 30.0971 27.411C27.3922 19.9221 72.742 14.7577 72.742 14.7577C72.8373 14.7412 73.2506 14.7056 73.9085 14.6488Z" fill="black" fill-opacity="0.2"/>
<path d="M8.64849 74.9792C12.0242 78.3755 16.3604 81.5085 20.7063 84.6485C30.9998 92.0858 41.3471 99.562 39.1106 110.666C37.6569 117.884 31.3091 132.466 25.5463 137.676C-5.17772 165.454 5.58144 101.829 8.20176 78.948C8.37372 77.4465 8.52661 76.1115 8.64849 74.9792Z" fill="#117CFF"/>
<path d="M8.64849 74.9792C12.0242 78.3755 16.3604 81.5085 20.7063 84.6485C30.9998 92.0858 41.3471 99.562 39.1106 110.666C37.6569 117.884 31.3091 132.466 25.5463 137.676C-5.17772 165.454 5.58144 101.829 8.20176 78.948C8.37372 77.4465 8.52661 76.1115 8.64849 74.9792Z" fill="black" fill-opacity="0.2"/>
<path d="M42.2306 160.353C49.3849 161.784 81.1972 167.454 91.09 170.798C96.2903 172.555 104.232 169.731 111.123 166.292L111.586 165.284C112.576 163.133 113.527 161.067 113.755 160.353C115.009 156.418 114.73 154.634 114.452 153.336C113.459 148.69 110.715 147.238 108.034 145.818C107.12 145.334 106.212 144.854 105.384 144.252C103.41 142.818 101.42 141.414 99.4187 140.035C97.2875 140.639 95.2288 141.084 93.5953 141.315C88.2625 142.07 78.5487 130.319 76.9996 125.553C76.0342 124.953 75.0684 124.354 74.1026 123.755C72.3889 122.692 70.5756 121.813 68.7601 120.934C66.922 120.043 65.0813 119.151 63.3391 118.066C63.5615 122.924 63.5673 127.754 62.0478 132.331C60.2823 137.65 54.0501 139.764 47.9438 141.837C39.5832 144.674 38.331 149.563 42.2306 160.353Z" fill="#117CFF"/>
<path d="M42.2306 160.353C49.3849 161.784 81.1972 167.454 91.09 170.798C96.2903 172.555 104.232 169.731 111.123 166.292L111.586 165.284C112.576 163.133 113.527 161.067 113.755 160.353C115.009 156.418 114.73 154.634 114.452 153.336C113.459 148.69 110.715 147.238 108.034 145.818C107.12 145.334 106.212 144.854 105.384 144.252C103.41 142.818 101.42 141.414 99.4187 140.035C97.2875 140.639 95.2288 141.084 93.5953 141.315C88.2625 142.07 78.5487 130.319 76.9996 125.553C76.0342 124.953 75.0684 124.354 74.1026 123.755C72.3889 122.692 70.5756 121.813 68.7601 120.934C66.922 120.043 65.0813 119.151 63.3391 118.066C63.5615 122.924 63.5673 127.754 62.0478 132.331C60.2823 137.65 54.0501 139.764 47.9438 141.837C39.5832 144.674 38.331 149.563 42.2306 160.353Z" fill="black" fill-opacity="0.2"/>
<path d="M67.7603 113.505C66.0559 112.558 64.3742 111.622 63.0081 110.838C62.9397 107.962 63.0246 105.115 63.5387 102.344C64.0819 99.4156 65.8528 96.7527 67.6755 94.012C69.6669 91.0176 71.72 87.9303 72.3015 84.3021C72.5323 82.8623 72.5452 81.3887 72.4185 79.9381C72.2661 78.1912 70.6378 73.6431 69.0412 70.648C76.7311 70.3029 78.6862 66.7232 78.6862 66.7232C78.6862 66.7232 80.8949 59.7953 80.3339 55.2469C91.0176 51.9457 109.874 41.5864 118.88 34.421C121.585 40.6002 124.467 48.0266 126.185 53.5711C123.929 55.0707 121.776 56.7644 119.632 58.4505C117.134 60.4151 114.649 62.3695 112.031 63.9941C109.559 65.5279 106.467 66.8161 103.245 68.1583C94.395 71.8455 84.5658 75.9405 83.9199 86.6558C83.5562 92.6911 88.1321 99.8471 91.9305 105.787L91.9316 105.789C92.3365 106.422 92.7326 107.041 93.1128 107.644C90.5162 107.531 88.0597 108.227 86.7777 110.63C85.4622 113.097 83.3778 115.223 81.4526 117.187C80.5019 118.157 79.59 119.087 78.8287 119.999C77.528 119.198 76.2275 118.397 74.928 117.594C73.2858 116.579 70.4936 115.026 67.7603 113.505Z" fill="#117CFF"/>
<path d="M67.7603 113.505C66.0559 112.558 64.3742 111.622 63.0081 110.838C62.9397 107.962 63.0246 105.115 63.5387 102.344C64.0819 99.4156 65.8528 96.7527 67.6755 94.012C69.6669 91.0176 71.72 87.9303 72.3015 84.3021C72.5323 82.8623 72.5452 81.3887 72.4185 79.9381C72.2661 78.1912 70.6378 73.6431 69.0412 70.648C76.7311 70.3029 78.6862 66.7232 78.6862 66.7232C78.6862 66.7232 80.8949 59.7953 80.3339 55.2469C91.0176 51.9457 109.874 41.5864 118.88 34.421C121.585 40.6002 124.467 48.0266 126.185 53.5711C123.929 55.0707 121.776 56.7644 119.632 58.4505C117.134 60.4151 114.649 62.3695 112.031 63.9941C109.559 65.5279 106.467 66.8161 103.245 68.1583C94.395 71.8455 84.5658 75.9405 83.9199 86.6558C83.5562 92.6911 88.1321 99.8471 91.9305 105.787L91.9316 105.789C92.3365 106.422 92.7326 107.041 93.1128 107.644C90.5162 107.531 88.0597 108.227 86.7777 110.63C85.4622 113.097 83.3778 115.223 81.4526 117.187C80.5019 118.157 79.59 119.087 78.8287 119.999C77.528 119.198 76.2275 118.397 74.928 117.594C73.2858 116.579 70.4936 115.026 67.7603 113.505Z" fill="black" fill-opacity="0.2"/>
<path d="M102.307 110.63C101.693 110.136 99.6186 109.072 97.14 108.354C96.8739 107.953 96.4741 107.428 96.0957 106.932L96.0947 106.931C95.6937 106.405 95.3169 105.911 95.1495 105.629C95.0183 105.408 94.8839 105.183 94.7468 104.952C90.8898 98.4774 84.9604 88.5234 89.3781 81.5762C94.0591 74.215 101.529 71.1378 109.099 68.0197C112.778 66.5041 116.481 64.9789 119.898 62.9473C120.715 62.4615 124.015 59.7568 127.142 56.9516C127.647 58.9793 127.862 60.4964 127.669 61.2268C127.248 62.8118 122.913 66.9662 118.121 71.5575C110.354 78.9993 101.389 87.5895 105.956 88.2475C113.342 89.3114 141.021 113.233 142.467 123.839C143.912 134.444 124.995 157.993 124.995 157.993C124.995 157.993 119.562 161.891 112.725 165.473C119.822 152.069 115.922 145.775 115.115 144.966C114.584 144.434 114.034 143.94 113.476 143.463C112.733 142.828 111.978 142.219 111.215 141.626C109.479 140.275 107.725 138.96 105.956 137.676C108.363 136.564 110.291 135.29 111.018 133.968C112.919 130.512 114.427 122.299 114.427 122.299C114.206 118.255 107.373 113.904 103.984 111.747C103.198 111.246 102.597 110.864 102.307 110.63Z" fill="#117CFF"/>
<path d="M102.307 110.63C101.693 110.136 99.6186 109.072 97.14 108.354C96.8739 107.953 96.4741 107.428 96.0957 106.932L96.0947 106.931C95.6937 106.405 95.3169 105.911 95.1495 105.629C95.0183 105.408 94.8839 105.183 94.7468 104.952C90.8898 98.4774 84.9604 88.5234 89.3781 81.5762C94.0591 74.215 101.529 71.1378 109.099 68.0197C112.778 66.5041 116.481 64.9789 119.898 62.9473C120.715 62.4615 124.015 59.7568 127.142 56.9516C127.647 58.9793 127.862 60.4964 127.669 61.2268C127.248 62.8118 122.913 66.9662 118.121 71.5575C110.354 78.9993 101.389 87.5895 105.956 88.2475C113.342 89.3114 141.021 113.233 142.467 123.839C143.912 134.444 124.995 157.993 124.995 157.993C124.995 157.993 119.562 161.891 112.725 165.473C119.822 152.069 115.922 145.775 115.115 144.966C114.584 144.434 114.034 143.94 113.476 143.463C112.733 142.828 111.978 142.219 111.215 141.626C109.479 140.275 107.725 138.96 105.956 137.676C108.363 136.564 110.291 135.29 111.018 133.968C112.919 130.512 114.427 122.299 114.427 122.299C114.206 118.255 107.373 113.904 103.984 111.747C103.198 111.246 102.597 110.864 102.307 110.63Z" fill="black" fill-opacity="0.2"/>
</g>
<defs>
<filter id="filter0_d_10_22" x="0.241211" y="0.664551" width="146.304" height="178.671" filterUnits="userSpaceOnUse" color-interpolation-filters="sRGB">
<feFlood flood-opacity="0" result="BackgroundImageFix"/>
<feColorMatrix in="SourceAlpha" type="matrix" values="0 0 0 0 0 0 0 0 0 0 0 0 0 0 0 0 0 0 127 0" result="hardAlpha"/>
<feOffset dy="4"/>
<feGaussianBlur stdDeviation="2"/>
<feComposite in2="hardAlpha" operator="out"/>
<feColorMatrix type="matrix" values="0 0 0 0 0 0 0 0 0 0 0 0 0 0 0 0 0 0 0.25 0"/>
<feBlend mode="normal" in2="BackgroundImageFix" result="effect1_dropShadow_10_22"/>
<feBlend mode="normal" in="SourceGraphic" in2="effect1_dropShadow_10_22" result="shape"/>
</filter>
</defs>
</svg>
