<svg width="161" height="172" viewBox="0 0 161 172" fill="none" xmlns="http://www.w3.org/2000/svg">
<path d="M89.0713 0.850917C86.4433 1.55508 80.0897 2.56674 72.4304 3.78632C54.6049 6.62463 29.7069 10.5891 28.2389 14.4243C26.1401 19.9075 28.2389 64.1451 28.2389 64.1451L28.0278 66.1061C36.3388 72.6986 61.8207 99.2985 60.6549 108.086C56.7348 137.637 44.0106 142.722 25.6853 150.046C20.5471 152.099 14.9686 154.329 9.02038 157.323C19.8258 165.16 36.5219 170.798 36.5219 170.798L48.5948 161.208C47.5214 156.583 48.331 149.649 49.4747 146.664C51.7468 140.734 57.5158 139.339 63.112 137.985C67.9821 136.807 72.7213 135.66 74.9108 131.585C77.3958 126.959 76.5314 120.282 75.705 113.898C75.2196 110.148 74.7473 106.5 74.9745 103.427C75.3155 98.8149 78.0451 95.4271 80.8118 91.9933C82.96 89.327 85.1306 86.633 86.2226 83.3166C87.1498 80.5004 86.0121 76.1742 85.1588 72.9295C84.9327 72.0701 84.7267 71.2865 84.5842 70.627C76.2875 70.1529 70.9477 66.2977 70.9477 66.2977C70.9477 66.2977 65.4347 60.0975 66.8794 55.163C67.3581 53.528 68.3842 51.6447 69.8725 49.879C69.5479 49.7209 69.2182 49.5608 68.8839 49.3985C59.5517 44.8667 46.6918 38.6219 43.9706 28.1026C41.1925 17.3634 65.6521 14.9788 86.5009 12.9462C97.0973 11.9132 106.761 10.971 111.442 9.0692C102.597 3.93444 93.3104 -0.284937 89.0713 0.850917Z" fill="#60A5FA"/>
<path d="M89.0713 0.850917C86.4433 1.55508 80.0897 2.56674 72.4304 3.78632C54.6049 6.62463 29.7069 10.5891 28.2389 14.4243C26.1401 19.9075 28.2389 64.1451 28.2389 64.1451L28.0278 66.1061C36.3388 72.6986 61.8207 99.2985 60.6549 108.086C56.7348 137.637 44.0106 142.722 25.6853 150.046C20.5471 152.099 14.9686 154.329 9.02038 157.323C19.8258 165.16 36.5219 170.798 36.5219 170.798L48.5948 161.208C47.5214 156.583 48.331 149.649 49.4747 146.664C51.7468 140.734 57.5158 139.339 63.112 137.985C67.9821 136.807 72.7213 135.66 74.9108 131.585C77.3958 126.959 76.5314 120.282 75.705 113.898C75.2196 110.148 74.7473 106.5 74.9745 103.427C75.3155 98.8149 78.0451 95.4271 80.8118 91.9933C82.96 89.327 85.1306 86.633 86.2226 83.3166C87.1498 80.5004 86.0121 76.1742 85.1588 72.9295C84.9327 72.0701 84.7267 71.2865 84.5842 70.627C76.2875 70.1529 70.9477 66.2977 70.9477 66.2977C70.9477 66.2977 65.4347 60.0975 66.8794 55.163C67.3581 53.528 68.3842 51.6447 69.8725 49.879C69.5479 49.7209 69.2182 49.5608 68.8839 49.3985C59.5517 44.8667 46.6918 38.6219 43.9706 28.1026C41.1925 17.3634 65.6521 14.9788 86.5009 12.9462C97.0973 11.9132 106.761 10.971 111.442 9.0692C102.597 3.93444 93.3104 -0.284937 89.0713 0.850917Z" fill="black" fill-opacity="0.2"/>
<path d="M114.65 10.9821C108.893 13.2197 96.2586 14.31 92.3328 14.6488C91.6749 14.7056 91.2616 14.7412 91.1662 14.7577C91.1662 14.7577 45.8165 19.9221 48.5214 27.411C51.691 36.1869 62.6243 42.3944 72.771 47.104C75.6597 44.8796 79.4348 43.3411 83.8305 43.6305C83.8305 43.6305 95.1274 47.0565 98.0934 53.0607C103.383 50.9371 115.118 43.9082 125.177 37.883C129.229 35.4561 133.009 33.192 135.986 31.4769C134.161 27.5019 132.531 24.39 131.558 23.2124C129.951 21.2689 122.792 15.9603 114.65 10.9821Z" fill="#60A5FA"/>
<path d="M114.65 10.9821C108.893 13.2197 96.2586 14.31 92.3328 14.6488C91.6749 14.7056 91.2616 14.7412 91.1662 14.7577C91.1662 14.7577 45.8165 19.9221 48.5214 27.411C51.691 36.1869 62.6243 42.3944 72.771 47.104C75.6597 44.8796 79.4348 43.3411 83.8305 43.6305C83.8305 43.6305 95.1274 47.0565 98.0934 53.0607C103.383 50.9371 115.118 43.9082 125.177 37.883C129.229 35.4561 133.009 33.192 135.986 31.4769C134.161 27.5019 132.531 24.39 131.558 23.2124C129.951 21.2689 122.792 15.9603 114.65 10.9821Z" fill="black" fill-opacity="0.2"/>
<path d="M24.4923 98.9501L27.0727 74.9792C30.4484 78.3755 34.7847 81.5086 39.1306 84.6486C49.4241 92.0859 59.7713 99.562 57.5348 110.666C56.0811 117.884 53.4433 130.392 47.6805 135.602C41.7241 140.988 32.3557 143.39 23.4683 145.668C15.8228 147.629 8.53326 149.498 4.07806 153.096C0.652431 149.507 -1.02704 145.632 0.743667 141.728C7.42651 126.995 21.3247 102.787 24.4923 98.9501Z" fill="#60A5FA"/>
<path d="M24.4923 98.9501L27.0727 74.9792C30.4484 78.3755 34.7847 81.5086 39.1306 84.6486C49.4241 92.0859 59.7713 99.562 57.5348 110.666C56.0811 117.884 53.4433 130.392 47.6805 135.602C41.7241 140.988 32.3557 143.39 23.4683 145.668C15.8228 147.629 8.53326 149.498 4.07806 153.096C0.652431 149.507 -1.02704 145.632 0.743667 141.728C7.42651 126.995 21.3247 102.787 24.4923 98.9501Z" fill="black" fill-opacity="0.2"/>
<path d="M109.514 170.798C99.6214 167.454 60.9368 159.652 53.7825 158.221C49.8829 147.431 58.0074 144.674 66.368 141.837C72.4743 139.764 78.7066 137.65 80.4721 132.331C81.9916 127.754 81.9858 122.924 81.7634 118.066C83.5056 119.151 85.3461 120.043 87.1843 120.934C88.9997 121.813 90.8131 122.692 92.5269 123.755C93.4927 124.354 94.4585 124.953 95.4239 125.553C96.9729 130.319 106.687 142.07 112.02 141.315C113.653 141.084 115.712 140.639 117.843 140.035C119.845 141.414 121.834 142.818 123.808 144.252C124.637 144.854 125.544 145.334 126.458 145.818C129.14 147.238 131.883 148.69 132.876 153.336C133.154 154.634 133.433 156.418 132.179 160.353C131.951 161.067 131 163.133 130.011 165.284C129.905 165.513 129.799 165.743 129.694 165.972C129.645 166.079 129.596 166.186 129.547 166.292C122.657 169.731 114.715 172.555 109.514 170.798Z" fill="#60A5FA"/>
<path d="M109.514 170.798C99.6214 167.454 60.9368 159.652 53.7825 158.221C49.8829 147.431 58.0074 144.674 66.368 141.837C72.4743 139.764 78.7066 137.65 80.4721 132.331C81.9916 127.754 81.9858 122.924 81.7634 118.066C83.5056 119.151 85.3461 120.043 87.1843 120.934C88.9997 121.813 90.8131 122.692 92.5269 123.755C93.4927 124.354 94.4585 124.953 95.4239 125.553C96.9729 130.319 106.687 142.07 112.02 141.315C113.653 141.084 115.712 140.639 117.843 140.035C119.845 141.414 121.834 142.818 123.808 144.252C124.637 144.854 125.544 145.334 126.458 145.818C129.14 147.238 131.883 148.69 132.876 153.336C133.154 154.634 133.433 156.418 132.179 160.353C131.951 161.067 131 163.133 130.011 165.284C129.905 165.513 129.799 165.743 129.694 165.972C129.645 166.079 129.596 166.186 129.547 166.292C122.657 169.731 114.715 172.555 109.514 170.798Z" fill="black" fill-opacity="0.2"/>
<path d="M86.1845 113.505C84.4802 112.558 82.7985 111.622 81.4323 110.838C81.3639 107.962 81.4489 105.115 81.9629 102.344C82.5062 99.4156 84.2771 96.7527 86.0998 94.012C88.0911 91.0176 90.1443 87.9303 90.7258 84.3021C90.9566 82.8623 90.9694 81.3887 90.8428 79.9381C90.6903 78.1912 89.0621 73.6431 87.4655 70.648C95.1553 70.3029 97.1105 66.7232 97.1105 66.7232C97.1105 66.7232 99.3192 59.7953 98.7582 55.2469C109.442 51.9457 128.298 41.5864 137.305 34.421C140.009 40.6002 142.892 48.0266 144.61 53.5711C142.354 55.0707 140.2 56.7644 138.056 58.4505C135.558 60.4152 133.074 62.3695 130.455 63.9941C127.983 65.5279 124.891 66.8161 121.669 68.1583C112.819 71.8455 102.99 75.9405 102.344 86.6558C101.98 92.6911 106.556 99.8471 110.355 105.787C110.76 106.421 111.156 107.041 111.537 107.644C108.94 107.531 106.484 108.227 105.202 110.63C103.886 113.097 101.802 115.223 99.8768 117.187C98.9262 118.157 98.0143 119.087 97.2529 119.999C95.9523 119.198 94.6517 118.397 93.3523 117.594C91.7101 116.579 88.9178 115.026 86.1845 113.505Z" fill="#60A5FA"/>
<path d="M86.1845 113.505C84.4802 112.558 82.7985 111.622 81.4323 110.838C81.3639 107.962 81.4489 105.115 81.9629 102.344C82.5062 99.4156 84.2771 96.7527 86.0998 94.012C88.0911 91.0176 90.1443 87.9303 90.7258 84.3021C90.9566 82.8623 90.9694 81.3887 90.8428 79.9381C90.6903 78.1912 89.0621 73.6431 87.4655 70.648C95.1553 70.3029 97.1105 66.7232 97.1105 66.7232C97.1105 66.7232 99.3192 59.7953 98.7582 55.2469C109.442 51.9457 128.298 41.5864 137.305 34.421C140.009 40.6002 142.892 48.0266 144.61 53.5711C142.354 55.0707 140.2 56.7644 138.056 58.4505C135.558 60.4152 133.074 62.3695 130.455 63.9941C127.983 65.5279 124.891 66.8161 121.669 68.1583C112.819 71.8455 102.99 75.9405 102.344 86.6558C101.98 92.6911 106.556 99.8471 110.355 105.787C110.76 106.421 111.156 107.041 111.537 107.644C108.94 107.531 106.484 108.227 105.202 110.63C103.886 113.097 101.802 115.223 99.8768 117.187C98.9262 118.157 98.0143 119.087 97.2529 119.999C95.9523 119.198 94.6517 118.397 93.3523 117.594C91.7101 116.579 88.9178 115.026 86.1845 113.505Z" fill="black" fill-opacity="0.2"/>
<path d="M115.564 108.354C118.043 109.072 120.117 110.136 120.731 110.63C121.021 110.864 121.622 111.246 122.408 111.747C125.797 113.904 132.631 118.255 132.851 122.299C132.851 122.299 131.344 130.512 129.442 133.968C128.715 135.29 126.787 136.564 124.381 137.676C126.149 138.96 127.903 140.275 129.64 141.626C130.402 142.219 131.157 142.828 131.9 143.463C132.458 143.94 133.008 144.434 133.539 144.966C134.346 145.775 138.247 152.069 131.149 165.473C137.986 161.891 143.419 157.993 143.419 157.993C143.419 157.993 162.337 134.444 160.891 123.839C159.445 113.233 131.766 89.3114 124.381 88.2475C119.813 87.5895 128.778 79 136.545 71.5581C141.337 66.9666 145.673 62.8119 146.093 61.2268C146.286 60.4964 146.072 58.9793 145.567 56.9516C142.439 59.7568 139.139 62.4615 138.322 62.9473C134.905 64.9789 131.202 66.5041 127.523 68.0197C119.954 71.1378 112.483 74.215 107.802 81.5762C103.385 88.5234 109.314 98.4774 113.171 104.952C113.308 105.183 113.443 105.408 113.574 105.629C113.741 105.911 114.118 106.405 114.519 106.931C114.898 107.427 115.298 107.952 115.564 108.354Z" fill="#60A5FA"/>
<path d="M115.564 108.354C118.043 109.072 120.117 110.136 120.731 110.63C121.021 110.864 121.622 111.246 122.408 111.747C125.797 113.904 132.631 118.255 132.851 122.299C132.851 122.299 131.344 130.512 129.442 133.968C128.715 135.29 126.787 136.564 124.381 137.676C126.149 138.96 127.903 140.275 129.64 141.626C130.402 142.219 131.157 142.828 131.9 143.463C132.458 143.94 133.008 144.434 133.539 144.966C134.346 145.775 138.247 152.069 131.149 165.473C137.986 161.891 143.419 157.993 143.419 157.993C143.419 157.993 162.337 134.444 160.891 123.839C159.445 113.233 131.766 89.3114 124.381 88.2475C119.813 87.5895 128.778 79 136.545 71.5581C141.337 66.9666 145.673 62.8119 146.093 61.2268C146.286 60.4964 146.072 58.9793 145.567 56.9516C142.439 59.7568 139.139 62.4615 138.322 62.9473C134.905 64.9789 131.202 66.5041 127.523 68.0197C119.954 71.1378 112.483 74.215 107.802 81.5762C103.385 88.5234 109.314 98.4774 113.171 104.952C113.308 105.183 113.443 105.408 113.574 105.629C113.741 105.911 114.118 106.405 114.519 106.931C114.898 107.427 115.298 107.952 115.564 108.354Z" fill="black" fill-opacity="0.2"/>
</svg>
