<svg width="161" height="172" viewBox="0 0 161 172" fill="none" xmlns="http://www.w3.org/2000/svg">
<g filter="url(#filter0_i_4_7)">
<path d="M89.0711 0.850917C86.4431 1.55508 80.0896 2.56674 72.4302 3.78632C54.6047 6.62463 29.7068 10.5891 28.2388 14.4243C26.14 19.9075 28.2388 64.1451 28.2388 64.1451L28.0277 66.1061C36.3387 72.6986 61.8206 99.2985 60.6548 108.086C56.7347 137.637 44.0105 142.722 25.6852 150.046C20.547 152.099 14.9685 154.329 9.02026 157.323C19.8256 165.16 36.5218 170.798 36.5218 170.798L48.5947 161.208C47.5212 156.583 48.3308 149.649 49.4746 146.664C51.7467 140.734 57.5157 139.339 63.1118 137.985C67.982 136.807 72.7211 135.66 74.9107 131.585C77.3957 126.959 76.5313 120.282 75.7049 113.898C75.2195 110.148 74.7472 106.5 74.9744 103.427C75.3154 98.8149 78.045 95.4271 80.8116 91.9933C82.9599 89.327 85.1305 86.633 86.2225 83.3166C87.1497 80.5004 86.0119 76.1742 85.1586 72.9295C84.9326 72.0701 84.7265 71.2865 84.5841 70.627C76.2874 70.1529 70.9475 66.2977 70.9475 66.2977C70.9475 66.2977 65.4345 60.0975 66.8793 55.163C67.358 53.528 68.3841 51.6447 69.8724 49.879C69.5478 49.7209 69.218 49.5608 68.8838 49.3985C59.5516 44.8667 46.6917 38.6219 43.9705 28.1026C41.1923 17.3634 65.652 14.9788 86.5008 12.9462C97.0972 11.9132 106.761 10.971 111.441 9.0692C102.597 3.93444 93.3103 -0.284937 89.0711 0.850917Z" fill="#60A5FA"/>
<path d="M89.0711 0.850917C86.4431 1.55508 80.0896 2.56674 72.4302 3.78632C54.6047 6.62463 29.7068 10.5891 28.2388 14.4243C26.14 19.9075 28.2388 64.1451 28.2388 64.1451L28.0277 66.1061C36.3387 72.6986 61.8206 99.2985 60.6548 108.086C56.7347 137.637 44.0105 142.722 25.6852 150.046C20.547 152.099 14.9685 154.329 9.02026 157.323C19.8256 165.16 36.5218 170.798 36.5218 170.798L48.5947 161.208C47.5212 156.583 48.3308 149.649 49.4746 146.664C51.7467 140.734 57.5157 139.339 63.1118 137.985C67.982 136.807 72.7211 135.66 74.9107 131.585C77.3957 126.959 76.5313 120.282 75.7049 113.898C75.2195 110.148 74.7472 106.5 74.9744 103.427C75.3154 98.8149 78.045 95.4271 80.8116 91.9933C82.9599 89.327 85.1305 86.633 86.2225 83.3166C87.1497 80.5004 86.0119 76.1742 85.1586 72.9295C84.9326 72.0701 84.7265 71.2865 84.5841 70.627C76.2874 70.1529 70.9475 66.2977 70.9475 66.2977C70.9475 66.2977 65.4345 60.0975 66.8793 55.163C67.358 53.528 68.3841 51.6447 69.8724 49.879C69.5478 49.7209 69.218 49.5608 68.8838 49.3985C59.5516 44.8667 46.6917 38.6219 43.9705 28.1026C41.1923 17.3634 65.652 14.9788 86.5008 12.9462C97.0972 11.9132 106.761 10.971 111.441 9.0692C102.597 3.93444 93.3103 -0.284937 89.0711 0.850917Z" fill="black" fill-opacity="0.2"/>
<path d="M114.65 10.9821C108.893 13.2197 96.2584 14.31 92.3327 14.6488C91.6748 14.7056 91.2615 14.7412 91.1661 14.7577C91.1661 14.7577 45.8164 19.9221 48.5212 27.411C51.6909 36.1869 62.6242 42.3944 72.7709 47.104C75.6596 44.8796 79.4346 43.3411 83.8304 43.6305C83.8304 43.6305 95.1273 47.0565 98.0933 53.0607C103.383 50.9371 115.117 43.9082 125.177 37.883C129.228 35.4561 133.008 33.192 135.986 31.4769C134.161 27.5019 132.531 24.39 131.558 23.2124C129.951 21.2689 122.792 15.9603 114.65 10.9821Z" fill="#60A5FA"/>
<path d="M114.65 10.9821C108.893 13.2197 96.2584 14.31 92.3327 14.6488C91.6748 14.7056 91.2615 14.7412 91.1661 14.7577C91.1661 14.7577 45.8164 19.9221 48.5212 27.411C51.6909 36.1869 62.6242 42.3944 72.7709 47.104C75.6596 44.8796 79.4346 43.3411 83.8304 43.6305C83.8304 43.6305 95.1273 47.0565 98.0933 53.0607C103.383 50.9371 115.117 43.9082 125.177 37.883C129.228 35.4561 133.008 33.192 135.986 31.4769C134.161 27.5019 132.531 24.39 131.558 23.2124C129.951 21.2689 122.792 15.9603 114.65 10.9821Z" fill="black" fill-opacity="0.2"/>
<path d="M24.4922 98.9501L27.0725 74.9792C30.4483 78.3755 34.7846 81.5086 39.1304 84.6486C49.4239 92.0859 59.7711 99.562 57.5346 110.666C56.0809 117.884 53.4432 130.392 47.6804 135.602C41.724 140.988 32.3556 143.39 23.4682 145.668C15.8227 147.629 8.53314 149.498 4.07794 153.096C0.652309 149.507 -1.02717 145.632 0.743544 141.728C7.42639 126.995 21.3246 102.787 24.4922 98.9501Z" fill="#60A5FA"/>
<path d="M24.4922 98.9501L27.0725 74.9792C30.4483 78.3755 34.7846 81.5086 39.1304 84.6486C49.4239 92.0859 59.7711 99.562 57.5346 110.666C56.0809 117.884 53.4432 130.392 47.6804 135.602C41.724 140.988 32.3556 143.39 23.4682 145.668C15.8227 147.629 8.53314 149.498 4.07794 153.096C0.652309 149.507 -1.02717 145.632 0.743544 141.728C7.42639 126.995 21.3246 102.787 24.4922 98.9501Z" fill="black" fill-opacity="0.2"/>
<path d="M109.514 170.798C99.6213 167.454 60.9366 159.652 53.7824 158.221C49.8828 147.431 58.0073 144.674 66.3679 141.837C72.4742 139.764 78.7065 137.65 80.4719 132.331C81.9914 127.754 81.9856 122.924 81.7633 118.066C83.5055 119.151 85.346 120.043 87.1842 120.934C88.9996 121.813 90.813 122.692 92.5268 123.755C93.4926 124.354 94.4584 124.953 95.4238 125.553C96.9728 130.319 106.687 142.07 112.019 141.315C113.653 141.084 115.712 140.639 117.843 140.035C119.845 141.414 121.834 142.818 123.808 144.252C124.637 144.854 125.544 145.334 126.458 145.818C129.14 147.238 131.883 148.69 132.876 153.336C133.154 154.634 133.433 156.418 132.179 160.353C131.951 161.067 131 163.133 130.011 165.284C129.905 165.513 129.799 165.743 129.694 165.972C129.645 166.079 129.596 166.186 129.547 166.292C122.657 169.731 114.714 172.555 109.514 170.798Z" fill="#60A5FA"/>
<path d="M109.514 170.798C99.6213 167.454 60.9366 159.652 53.7824 158.221C49.8828 147.431 58.0073 144.674 66.3679 141.837C72.4742 139.764 78.7065 137.65 80.4719 132.331C81.9914 127.754 81.9856 122.924 81.7633 118.066C83.5055 119.151 85.346 120.043 87.1842 120.934C88.9996 121.813 90.813 122.692 92.5268 123.755C93.4926 124.354 94.4584 124.953 95.4238 125.553C96.9728 130.319 106.687 142.07 112.019 141.315C113.653 141.084 115.712 140.639 117.843 140.035C119.845 141.414 121.834 142.818 123.808 144.252C124.637 144.854 125.544 145.334 126.458 145.818C129.14 147.238 131.883 148.69 132.876 153.336C133.154 154.634 133.433 156.418 132.179 160.353C131.951 161.067 131 163.133 130.011 165.284C129.905 165.513 129.799 165.743 129.694 165.972C129.645 166.079 129.596 166.186 129.547 166.292C122.657 169.731 114.714 172.555 109.514 170.798Z" fill="black" fill-opacity="0.2"/>
<path d="M86.1844 113.505C84.48 112.558 82.7984 111.622 81.4322 110.838C81.3638 107.962 81.4487 105.115 81.9628 102.344C82.5061 99.4156 84.277 96.7527 86.0996 94.012C88.091 91.0176 90.1442 87.9303 90.7257 84.3021C90.9565 82.8623 90.9693 81.3887 90.8427 79.9381C90.6902 78.1912 89.062 73.6431 87.4653 70.648C95.1552 70.3029 97.1103 66.7232 97.1103 66.7232C97.1103 66.7232 99.3191 59.7953 98.7581 55.2469C109.442 51.9457 128.298 41.5864 137.304 34.421C140.009 40.6002 142.892 48.0266 144.609 53.5711C142.353 55.0707 140.2 56.7644 138.056 58.4505C135.558 60.4152 133.073 62.3695 130.455 63.9941C127.983 65.5279 124.891 66.8161 121.669 68.1583C112.819 71.8455 102.99 75.9405 102.344 86.6558C101.98 92.6911 106.556 99.8471 110.355 105.787C110.76 106.421 111.156 107.041 111.537 107.644C108.94 107.531 106.484 108.227 105.202 110.63C103.886 113.097 101.802 115.223 99.8767 117.187C98.9261 118.157 98.0142 119.087 97.2528 119.999C95.9522 119.198 94.6516 118.397 93.3522 117.594C91.71 116.579 88.9177 115.026 86.1844 113.505Z" fill="#60A5FA"/>
<path d="M86.1844 113.505C84.48 112.558 82.7984 111.622 81.4322 110.838C81.3638 107.962 81.4487 105.115 81.9628 102.344C82.5061 99.4156 84.277 96.7527 86.0996 94.012C88.091 91.0176 90.1442 87.9303 90.7257 84.3021C90.9565 82.8623 90.9693 81.3887 90.8427 79.9381C90.6902 78.1912 89.062 73.6431 87.4653 70.648C95.1552 70.3029 97.1103 66.7232 97.1103 66.7232C97.1103 66.7232 99.3191 59.7953 98.7581 55.2469C109.442 51.9457 128.298 41.5864 137.304 34.421C140.009 40.6002 142.892 48.0266 144.609 53.5711C142.353 55.0707 140.2 56.7644 138.056 58.4505C135.558 60.4152 133.073 62.3695 130.455 63.9941C127.983 65.5279 124.891 66.8161 121.669 68.1583C112.819 71.8455 102.99 75.9405 102.344 86.6558C101.98 92.6911 106.556 99.8471 110.355 105.787C110.76 106.421 111.156 107.041 111.537 107.644C108.94 107.531 106.484 108.227 105.202 110.63C103.886 113.097 101.802 115.223 99.8767 117.187C98.9261 118.157 98.0142 119.087 97.2528 119.999C95.9522 119.198 94.6516 118.397 93.3522 117.594C91.71 116.579 88.9177 115.026 86.1844 113.505Z" fill="black" fill-opacity="0.2"/>
<path d="M115.564 108.354C118.043 109.072 120.117 110.136 120.731 110.63C121.021 110.864 121.622 111.246 122.408 111.747C125.797 113.904 132.631 118.255 132.851 122.299C132.851 122.299 131.343 130.512 129.442 133.968C128.715 135.29 126.787 136.564 124.381 137.676C126.149 138.96 127.903 140.275 129.639 141.626C130.402 142.219 131.157 142.828 131.9 143.463C132.458 143.94 133.008 144.434 133.539 144.966C134.346 145.775 138.246 152.069 131.149 165.473C137.986 161.891 143.419 157.993 143.419 157.993C143.419 157.993 162.337 134.444 160.891 123.839C159.445 113.233 131.766 89.3114 124.381 88.2475C119.813 87.5895 128.778 79 136.544 71.5581C141.336 66.9666 145.673 62.8119 146.093 61.2268C146.286 60.4964 146.071 58.9793 145.567 56.9516C142.439 59.7568 139.139 62.4615 138.322 62.9473C134.905 64.9789 131.202 66.5041 127.523 68.0197C119.953 71.1378 112.483 74.215 107.802 81.5762C103.385 88.5234 109.314 98.4774 113.171 104.952C113.308 105.183 113.442 105.408 113.574 105.629C113.741 105.911 114.118 106.405 114.519 106.931C114.897 107.427 115.298 107.952 115.564 108.354Z" fill="#60A5FA"/>
<path d="M115.564 108.354C118.043 109.072 120.117 110.136 120.731 110.63C121.021 110.864 121.622 111.246 122.408 111.747C125.797 113.904 132.631 118.255 132.851 122.299C132.851 122.299 131.343 130.512 129.442 133.968C128.715 135.29 126.787 136.564 124.381 137.676C126.149 138.96 127.903 140.275 129.639 141.626C130.402 142.219 131.157 142.828 131.9 143.463C132.458 143.94 133.008 144.434 133.539 144.966C134.346 145.775 138.246 152.069 131.149 165.473C137.986 161.891 143.419 157.993 143.419 157.993C143.419 157.993 162.337 134.444 160.891 123.839C159.445 113.233 131.766 89.3114 124.381 88.2475C119.813 87.5895 128.778 79 136.544 71.5581C141.336 66.9666 145.673 62.8119 146.093 61.2268C146.286 60.4964 146.071 58.9793 145.567 56.9516C142.439 59.7568 139.139 62.4615 138.322 62.9473C134.905 64.9789 131.202 66.5041 127.523 68.0197C119.953 71.1378 112.483 74.215 107.802 81.5762C103.385 88.5234 109.314 98.4774 113.171 104.952C113.308 105.183 113.442 105.408 113.574 105.629C113.741 105.911 114.118 106.405 114.519 106.931C114.897 107.427 115.298 107.952 115.564 108.354Z" fill="black" fill-opacity="0.2"/>
</g>
<defs>
<filter id="filter0_i_4_7" x="0.0300293" y="0.664551" width="160.94" height="174.671" filterUnits="userSpaceOnUse" color-interpolation-filters="sRGB">
<feFlood flood-opacity="0" result="BackgroundImageFix"/>
<feBlend mode="normal" in="SourceGraphic" in2="BackgroundImageFix" result="shape"/>
<feColorMatrix in="SourceAlpha" type="matrix" values="0 0 0 0 0 0 0 0 0 0 0 0 0 0 0 0 0 0 127 0" result="hardAlpha"/>
<feOffset dy="4"/>
<feGaussianBlur stdDeviation="2"/>
<feComposite in2="hardAlpha" operator="arithmetic" k2="-1" k3="1"/>
<feColorMatrix type="matrix" values="0 0 0 0 0 0 0 0 0 0 0 0 0 0 0 0 0 0 0.25 0"/>
<feBlend mode="normal" in2="shape" result="effect1_innerShadow_4_7"/>
</filter>
</defs>
</svg>
