<svg width="139" height="172" viewBox="0 0 139 172" fill="none" xmlns="http://www.w3.org/2000/svg">
<g filter="url(#filter0_i_5_14)">
<path d="M50.4304 3.78632C58.0897 2.56674 64.4433 1.55508 67.0713 0.850917C71.3104 -0.284937 80.5967 3.93444 89.4416 9.0692C84.7609 10.971 75.0973 11.9132 64.501 12.9462C43.6522 14.9788 19.1925 17.3634 21.9706 28.1026C24.6918 38.6219 37.5517 44.8667 46.8839 49.3985C47.2182 49.5608 47.5479 49.7209 47.8725 49.879C46.3842 51.6447 45.3582 53.528 44.8795 55.163C43.4347 60.0975 48.9477 66.2977 48.9477 66.2977C48.9477 66.2977 54.2875 70.1529 62.5843 70.627C62.7267 71.2865 62.9328 72.0701 63.1588 72.9295C64.0121 76.1742 65.1499 80.5005 64.2227 83.3166C63.1307 86.633 60.9601 89.327 58.8119 91.9933C56.0453 95.427 53.3156 98.815 52.9745 103.427C52.7473 106.499 53.2197 110.148 53.705 113.898C54.5315 120.282 55.3958 126.959 52.9109 131.585C50.7213 135.66 47.6214 137.982 42.7513 139.16C37.1551 140.513 33.9738 141.909 31.7017 147.839C30.5914 150.736 34.5399 155.226 35.5349 159.664C35.5349 159.664 25.981 158.871 17.1306 155.555C12.2485 153.727 7.48577 148.604 13.0836 146.324C28.8293 139.91 35.1361 128.87 38.6549 102.344C39.8208 93.556 14.3388 72.6986 6.02786 66.1061L6.23895 64.1451C6.23895 64.1451 4.14016 19.9075 6.23895 14.4243C7.70696 10.5891 32.6049 6.62463 50.4304 3.78632Z" fill="#60A5FA"/>
<path d="M50.4304 3.78632C58.0897 2.56674 64.4433 1.55508 67.0713 0.850917C71.3104 -0.284937 80.5967 3.93444 89.4416 9.0692C84.7609 10.971 75.0973 11.9132 64.501 12.9462C43.6522 14.9788 19.1925 17.3634 21.9706 28.1026C24.6918 38.6219 37.5517 44.8667 46.8839 49.3985C47.2182 49.5608 47.5479 49.7209 47.8725 49.879C46.3842 51.6447 45.3582 53.528 44.8795 55.163C43.4347 60.0975 48.9477 66.2977 48.9477 66.2977C48.9477 66.2977 54.2875 70.1529 62.5843 70.627C62.7267 71.2865 62.9328 72.0701 63.1588 72.9295C64.0121 76.1742 65.1499 80.5005 64.2227 83.3166C63.1307 86.633 60.9601 89.327 58.8119 91.9933C56.0453 95.427 53.3156 98.815 52.9745 103.427C52.7473 106.499 53.2197 110.148 53.705 113.898C54.5315 120.282 55.3958 126.959 52.9109 131.585C50.7213 135.66 47.6214 137.982 42.7513 139.16C37.1551 140.513 33.9738 141.909 31.7017 147.839C30.5914 150.736 34.5399 155.226 35.5349 159.664C35.5349 159.664 25.981 158.871 17.1306 155.555C12.2485 153.727 7.48577 148.604 13.0836 146.324C28.8293 139.91 35.1361 128.87 38.6549 102.344C39.8208 93.556 14.3388 72.6986 6.02786 66.1061L6.23895 64.1451C6.23895 64.1451 4.14016 19.9075 6.23895 14.4243C7.70696 10.5891 32.6049 6.62463 50.4304 3.78632Z" fill="black" fill-opacity="0.2"/>
<path d="M70.3328 14.6488C74.2586 14.31 86.8933 13.2197 92.6505 10.9821C100.792 15.9603 107.951 21.2689 109.558 23.2124C110.531 24.39 112.161 27.5019 113.986 31.4769C111.01 33.1912 107.232 35.454 103.182 37.8796L103.177 37.883C93.1176 43.9082 81.3828 50.9371 76.0935 53.0607C73.1274 47.0565 61.8306 43.6305 61.8306 43.6305C57.4348 43.3411 53.6597 44.8796 50.771 47.104C40.6243 42.3944 29.6911 36.1869 26.5214 27.411C23.8166 19.9221 69.1663 14.7577 69.1663 14.7577C69.2616 14.7412 69.6749 14.7056 70.3328 14.6488Z" fill="#60A5FA"/>
<path d="M70.3328 14.6488C74.2586 14.31 86.8933 13.2197 92.6505 10.9821C100.792 15.9603 107.951 21.2689 109.558 23.2124C110.531 24.39 112.161 27.5019 113.986 31.4769C111.01 33.1912 107.232 35.454 103.182 37.8796L103.177 37.883C93.1176 43.9082 81.3828 50.9371 76.0935 53.0607C73.1274 47.0565 61.8306 43.6305 61.8306 43.6305C57.4348 43.3411 53.6597 44.8796 50.771 47.104C40.6243 42.3944 29.6911 36.1869 26.5214 27.411C23.8166 19.9221 69.1663 14.7577 69.1663 14.7577C69.2616 14.7412 69.6749 14.7056 70.3328 14.6488Z" fill="black" fill-opacity="0.2"/>
<path d="M5.07281 74.9792C8.44849 78.3755 12.7848 81.5085 17.1306 84.6485C27.4241 92.0858 37.7714 99.562 35.5349 110.666C34.0812 117.884 27.7334 132.466 21.9706 137.676C-8.7534 165.454 2.00575 101.829 4.62608 78.948C4.79804 77.4465 4.95092 76.1115 5.07281 74.9792Z" fill="#60A5FA"/>
<path d="M5.07281 74.9792C8.44849 78.3755 12.7848 81.5085 17.1306 84.6485C27.4241 92.0858 37.7714 99.562 35.5349 110.666C34.0812 117.884 27.7334 132.466 21.9706 137.676C-8.7534 165.454 2.00575 101.829 4.62608 78.948C4.79804 77.4465 4.95092 76.1115 5.07281 74.9792Z" fill="black" fill-opacity="0.2"/>
<path d="M38.6549 160.353C45.8092 161.784 77.6215 167.454 87.5143 170.798C92.7146 172.555 100.657 169.731 107.547 166.292L108.011 165.284C109 163.133 109.951 161.067 110.179 160.353C111.433 156.418 111.154 154.634 110.876 153.336C109.883 148.69 107.14 147.238 104.458 145.818C103.544 145.334 102.637 144.854 101.808 144.252C99.8341 142.818 97.8447 141.414 95.843 140.035C93.7118 140.639 91.6531 141.084 90.0197 141.315C84.6868 142.07 74.973 130.319 73.424 125.553C72.4585 124.953 71.4928 124.354 70.527 123.755C68.8132 122.692 66.9999 121.813 65.1845 120.934C63.3463 120.043 61.5056 119.151 59.7635 118.066C59.9858 122.924 59.9916 127.754 58.4721 132.331C56.7066 137.65 50.4744 139.764 44.3681 141.837C36.0075 144.674 34.7553 149.563 38.6549 160.353Z" fill="#60A5FA"/>
<path d="M38.6549 160.353C45.8092 161.784 77.6215 167.454 87.5143 170.798C92.7146 172.555 100.657 169.731 107.547 166.292L108.011 165.284C109 163.133 109.951 161.067 110.179 160.353C111.433 156.418 111.154 154.634 110.876 153.336C109.883 148.69 107.14 147.238 104.458 145.818C103.544 145.334 102.637 144.854 101.808 144.252C99.8341 142.818 97.8447 141.414 95.843 140.035C93.7118 140.639 91.6531 141.084 90.0197 141.315C84.6868 142.07 74.973 130.319 73.424 125.553C72.4585 124.953 71.4928 124.354 70.527 123.755C68.8132 122.692 66.9999 121.813 65.1845 120.934C63.3463 120.043 61.5056 119.151 59.7635 118.066C59.9858 122.924 59.9916 127.754 58.4721 132.331C56.7066 137.65 50.4744 139.764 44.3681 141.837C36.0075 144.674 34.7553 149.563 38.6549 160.353Z" fill="black" fill-opacity="0.2"/>
<path d="M64.1846 113.505C62.4802 112.558 60.7985 111.622 59.4324 110.838C59.364 107.962 59.4489 105.115 59.963 102.344C60.5062 99.4156 62.2771 96.7527 64.0998 94.012C66.0912 91.0176 68.1443 87.9303 68.7259 84.3021C68.9566 82.8623 68.9695 81.3887 68.8429 79.9381C68.6904 78.1912 67.0622 73.6431 65.4655 70.648C73.1554 70.3029 75.1105 66.7232 75.1105 66.7232C75.1105 66.7232 77.3192 59.7953 76.7582 55.2469C87.4419 51.9457 106.298 41.5864 115.305 34.421C118.009 40.6002 120.892 48.0266 122.61 53.5711C120.354 55.0707 118.2 56.7644 116.056 58.4505C113.558 60.4151 111.073 62.3695 108.455 63.9941C105.983 65.5279 102.891 66.8161 99.6695 68.1583C90.8193 71.8455 80.9901 75.9405 80.3443 86.6558C79.9805 92.6911 84.5564 99.8471 88.3549 105.787L88.3559 105.789C88.7608 106.422 89.1569 107.041 89.5372 107.644C86.9405 107.531 84.484 108.227 83.2021 110.63C81.8865 113.097 79.8022 115.223 77.8769 117.187C76.9262 118.157 76.0144 119.087 75.253 119.999C73.9524 119.198 72.6518 118.397 71.3523 117.594C69.7101 116.579 66.9179 115.026 64.1846 113.505Z" fill="#60A5FA"/>
<path d="M64.1846 113.505C62.4802 112.558 60.7985 111.622 59.4324 110.838C59.364 107.962 59.4489 105.115 59.963 102.344C60.5062 99.4156 62.2771 96.7527 64.0998 94.012C66.0912 91.0176 68.1443 87.9303 68.7259 84.3021C68.9566 82.8623 68.9695 81.3887 68.8429 79.9381C68.6904 78.1912 67.0622 73.6431 65.4655 70.648C73.1554 70.3029 75.1105 66.7232 75.1105 66.7232C75.1105 66.7232 77.3192 59.7953 76.7582 55.2469C87.4419 51.9457 106.298 41.5864 115.305 34.421C118.009 40.6002 120.892 48.0266 122.61 53.5711C120.354 55.0707 118.2 56.7644 116.056 58.4505C113.558 60.4151 111.073 62.3695 108.455 63.9941C105.983 65.5279 102.891 66.8161 99.6695 68.1583C90.8193 71.8455 80.9901 75.9405 80.3443 86.6558C79.9805 92.6911 84.5564 99.8471 88.3549 105.787L88.3559 105.789C88.7608 106.422 89.1569 107.041 89.5372 107.644C86.9405 107.531 84.484 108.227 83.2021 110.63C81.8865 113.097 79.8022 115.223 77.8769 117.187C76.9262 118.157 76.0144 119.087 75.253 119.999C73.9524 119.198 72.6518 118.397 71.3523 117.594C69.7101 116.579 66.9179 115.026 64.1846 113.505Z" fill="black" fill-opacity="0.2"/>
<path d="M98.731 110.63C98.1171 110.136 96.0429 109.072 93.5644 108.354C93.2982 107.953 92.8984 107.428 92.52 106.932L92.519 106.931C92.118 106.405 91.7412 105.911 91.5739 105.629C91.4426 105.408 91.3082 105.183 91.1711 104.952C87.3141 98.4774 81.3847 88.5234 85.8024 81.5762C90.4834 74.215 97.9536 71.1378 105.523 68.0197C109.202 66.5041 112.905 64.9789 116.322 62.9473C117.139 62.4615 120.439 59.7568 123.567 56.9516C124.072 58.9793 124.286 60.4964 124.093 61.2268C123.673 62.8118 119.337 66.9662 114.545 71.5575C106.778 78.9993 97.8133 87.5895 102.381 88.2475C109.766 89.3114 137.445 113.233 138.891 123.839C140.337 134.444 121.419 157.993 121.419 157.993C121.419 157.993 115.986 161.891 109.149 165.473C116.247 152.069 112.346 145.775 111.539 144.966C111.008 144.434 110.458 143.94 109.9 143.463C109.157 142.828 108.402 142.219 107.64 141.626C105.903 140.275 104.149 138.96 102.381 137.676C104.787 136.564 106.715 135.29 107.442 133.968C109.344 130.512 110.851 122.299 110.851 122.299C110.631 118.255 103.798 113.904 100.408 111.747C99.622 111.246 99.0212 110.864 98.731 110.63Z" fill="#60A5FA"/>
<path d="M98.731 110.63C98.1171 110.136 96.0429 109.072 93.5644 108.354C93.2982 107.953 92.8984 107.428 92.52 106.932L92.519 106.931C92.118 106.405 91.7412 105.911 91.5739 105.629C91.4426 105.408 91.3082 105.183 91.1711 104.952C87.3141 98.4774 81.3847 88.5234 85.8024 81.5762C90.4834 74.215 97.9536 71.1378 105.523 68.0197C109.202 66.5041 112.905 64.9789 116.322 62.9473C117.139 62.4615 120.439 59.7568 123.567 56.9516C124.072 58.9793 124.286 60.4964 124.093 61.2268C123.673 62.8118 119.337 66.9662 114.545 71.5575C106.778 78.9993 97.8133 87.5895 102.381 88.2475C109.766 89.3114 137.445 113.233 138.891 123.839C140.337 134.444 121.419 157.993 121.419 157.993C121.419 157.993 115.986 161.891 109.149 165.473C116.247 152.069 112.346 145.775 111.539 144.966C111.008 144.434 110.458 143.94 109.9 143.463C109.157 142.828 108.402 142.219 107.64 141.626C105.903 140.275 104.149 138.96 102.381 137.676C104.787 136.564 106.715 135.29 107.442 133.968C109.344 130.512 110.851 122.299 110.851 122.299C110.631 118.255 103.798 113.904 100.408 111.747C99.622 111.246 99.0212 110.864 98.731 110.63Z" fill="black" fill-opacity="0.2"/>
</g>
<defs>
<filter id="filter0_i_5_14" x="0.665527" y="0.664551" width="138.304" height="174.671" filterUnits="userSpaceOnUse" color-interpolation-filters="sRGB">
<feFlood flood-opacity="0" result="BackgroundImageFix"/>
<feBlend mode="normal" in="SourceGraphic" in2="BackgroundImageFix" result="shape"/>
<feColorMatrix in="SourceAlpha" type="matrix" values="0 0 0 0 0 0 0 0 0 0 0 0 0 0 0 0 0 0 127 0" result="hardAlpha"/>
<feOffset dy="4"/>
<feGaussianBlur stdDeviation="2"/>
<feComposite in2="hardAlpha" operator="arithmetic" k2="-1" k3="1"/>
<feColorMatrix type="matrix" values="0 0 0 0 0 0 0 0 0 0 0 0 0 0 0 0 0 0 0.25 0"/>
<feBlend mode="normal" in2="shape" result="effect1_innerShadow_5_14"/>
</filter>
</defs>
</svg>
