<svg width="147" height="180" viewBox="0 0 147 180" fill="none" xmlns="http://www.w3.org/2000/svg">
<path d="M54.4304 3.78632C62.0897 2.56674 68.4433 1.55508 71.0713 0.850917C75.3104 -0.284937 84.5967 3.93444 93.4416 9.0692C88.7609 10.971 79.0973 11.9132 68.501 12.9462C47.6522 14.9788 23.1925 17.3634 25.9706 28.1026C28.6918 38.6219 41.5517 44.8667 50.8839 49.3985C51.2182 49.5608 51.5479 49.7209 51.8725 49.879C50.3842 51.6447 49.3582 53.528 48.8795 55.163C47.4347 60.0975 52.9477 66.2977 52.9477 66.2977C52.9477 66.2977 58.2875 70.1529 66.5843 70.627C66.7267 71.2865 66.9328 72.0701 67.1588 72.9295C68.0121 76.1742 69.1499 80.5005 68.2227 83.3166C67.1307 86.633 64.9601 89.327 62.8119 91.9933C60.0453 95.427 57.3156 98.815 56.9745 103.427C56.7473 106.499 57.2197 110.148 57.705 113.898C58.5315 120.282 59.3958 126.959 56.9109 131.585C54.7213 135.66 51.6214 137.982 46.7513 139.16C41.1551 140.513 37.9738 141.909 35.7017 147.839C34.5914 150.736 38.5399 155.226 39.5349 159.664C39.5349 159.664 29.981 158.871 21.1306 155.555C16.2485 153.727 11.4858 148.604 17.0836 146.324C32.8293 139.91 39.1361 128.87 42.6549 102.344C43.8208 93.556 18.3388 72.6986 10.0279 66.1061L10.2389 64.1451C10.2389 64.1451 8.14016 19.9075 10.2389 14.4243C11.707 10.5891 36.6049 6.62463 54.4304 3.78632Z" fill="#117CFF"/>
<path d="M74.3328 14.6488C78.2586 14.31 90.8933 13.2197 96.6505 10.9821C104.792 15.9603 111.951 21.2689 113.558 23.2124C114.531 24.39 116.161 27.5019 117.986 31.4769C115.01 33.1912 111.232 35.454 107.182 37.8796L107.177 37.883C97.1176 43.9082 85.3828 50.9371 80.0935 53.0607C77.1274 47.0565 65.8306 43.6305 65.8306 43.6305C61.4348 43.3411 57.6597 44.8796 54.771 47.104C44.6243 42.3944 33.6911 36.1869 30.5214 27.411C27.8166 19.9221 73.1663 14.7577 73.1663 14.7577C73.2616 14.7412 73.6749 14.7056 74.3328 14.6488Z" fill="#117CFF"/>
<path d="M9.07281 74.9792C12.4485 78.3755 16.7848 81.5085 21.1306 84.6485C31.4241 92.0858 41.7714 99.562 39.5349 110.666C38.0812 117.884 31.7334 132.466 25.9706 137.676C-4.7534 165.454 6.00575 101.829 8.62608 78.948C8.79804 77.4465 8.95092 76.1115 9.07281 74.9792Z" fill="#117CFF"/>
<path d="M42.6549 160.353C49.8092 161.784 81.6215 167.454 91.5143 170.798C96.7146 172.555 104.657 169.731 111.547 166.292L112.011 165.284C113 163.133 113.951 161.067 114.179 160.353C115.433 156.418 115.154 154.634 114.876 153.336C113.883 148.69 111.14 147.238 108.458 145.818C107.544 145.334 106.637 144.854 105.808 144.252C103.834 142.818 101.845 141.414 99.843 140.035C97.7118 140.639 95.6531 141.084 94.0197 141.315C88.6868 142.07 78.973 130.319 77.424 125.553C76.4585 124.953 75.4928 124.354 74.527 123.755C72.8132 122.692 70.9999 121.813 69.1845 120.934C67.3463 120.043 65.5056 119.151 63.7635 118.066C63.9858 122.924 63.9916 127.754 62.4721 132.331C60.7066 137.65 54.4744 139.764 48.3681 141.837C40.0075 144.674 38.7553 149.563 42.6549 160.353Z" fill="#117CFF"/>
<path d="M68.1846 113.505C66.4802 112.558 64.7985 111.622 63.4324 110.838C63.364 107.962 63.4489 105.115 63.963 102.344C64.5062 99.4156 66.2771 96.7527 68.0998 94.012C70.0912 91.0176 72.1443 87.9303 72.7259 84.3021C72.9566 82.8623 72.9695 81.3887 72.8429 79.9381C72.6904 78.1912 71.0622 73.6431 69.4655 70.648C77.1554 70.3029 79.1105 66.7232 79.1105 66.7232C79.1105 66.7232 81.3192 59.7953 80.7582 55.2469C91.4419 51.9457 110.298 41.5864 119.305 34.421C122.009 40.6002 124.892 48.0266 126.61 53.5711C124.354 55.0707 122.2 56.7644 120.056 58.4505C117.558 60.4151 115.073 62.3695 112.455 63.9941C109.983 65.5279 106.891 66.8161 103.669 68.1583C94.8193 71.8455 84.9901 75.9405 84.3443 86.6558C83.9805 92.6911 88.5564 99.8471 92.3549 105.787L92.3559 105.789C92.7608 106.422 93.1569 107.041 93.5372 107.644C90.9405 107.531 88.484 108.227 87.2021 110.63C85.8865 113.097 83.8022 115.223 81.8769 117.187C80.9262 118.157 80.0144 119.087 79.253 119.999C77.9524 119.198 76.6518 118.397 75.3523 117.594C73.7101 116.579 70.9179 115.026 68.1846 113.505Z" fill="#117CFF"/>
<path d="M102.731 110.63C102.117 110.136 100.043 109.072 97.5644 108.354C97.2982 107.953 96.8984 107.428 96.52 106.932L96.519 106.931C96.118 106.405 95.7412 105.911 95.5739 105.629C95.4426 105.408 95.3082 105.183 95.1711 104.952C91.3141 98.4774 85.3847 88.5234 89.8024 81.5762C94.4834 74.215 101.954 71.1378 109.523 68.0197C113.202 66.5041 116.905 64.9789 120.322 62.9473C121.139 62.4615 124.439 59.7568 127.567 56.9516C128.072 58.9793 128.286 60.4964 128.093 61.2268C127.673 62.8118 123.337 66.9662 118.545 71.5575C110.778 78.9993 101.813 87.5895 106.381 88.2475C113.766 89.3114 141.445 113.233 142.891 123.839C144.337 134.444 125.419 157.993 125.419 157.993C125.419 157.993 119.986 161.891 113.149 165.473C120.247 152.069 116.346 145.775 115.539 144.966C115.008 144.434 114.458 143.94 113.9 143.463C113.157 142.828 112.402 142.219 111.64 141.626C109.903 140.275 108.149 138.96 106.381 137.676C108.787 136.564 110.715 135.29 111.442 133.968C113.344 130.512 114.851 122.299 114.851 122.299C114.631 118.255 107.798 113.904 104.408 111.747C103.622 111.246 103.021 110.864 102.731 110.63Z" fill="#117CFF"/>
</svg>
