<svg width="226" height="246" viewBox="0 0 226 246" fill="none" xmlns="http://www.w3.org/2000/svg">
<g filter="url(#filter0_d_12_25)">
<path d="M4.09204 36.7309C4.09204 16.8487 20.2098 0.730957 40.092 0.730957H185.543C205.426 0.730957 221.543 16.8487 221.543 36.731V201.269C221.543 221.151 205.426 237.269 185.543 237.269H40.0921C20.2098 237.269 4.09204 221.151 4.09204 201.269V36.7309Z" fill="#65FFAF"/>
<path d="M93.4305 36.7863C101.09 35.5667 107.443 34.5551 110.071 33.8509C114.311 32.7151 123.597 36.9344 132.442 42.0692C127.761 43.971 118.097 44.9132 107.501 45.9462C86.6523 47.9788 62.1926 50.3634 64.9708 61.1026C67.692 71.6219 80.5519 77.8667 89.8841 82.3985C90.2183 82.5608 90.5481 82.7209 90.8727 82.879C89.3844 84.6447 88.3583 86.528 87.8796 88.163C86.4348 93.0975 91.9478 99.2977 91.9478 99.2977C91.9478 99.2977 97.2877 103.153 105.584 103.627C105.727 104.287 105.933 105.07 106.159 105.93C107.012 109.174 108.15 113.5 107.223 116.317C106.131 119.633 103.96 122.327 101.812 124.993C99.0454 128.427 96.3157 131.815 95.9747 136.427C95.7475 139.499 96.2198 143.148 96.7052 146.898C97.5316 153.282 98.396 159.959 95.911 164.585C93.7214 168.66 90.6215 170.982 85.7514 172.16C80.1553 173.513 76.9739 174.909 74.7019 180.839C73.5915 183.736 77.5401 188.226 78.535 192.664C78.535 192.664 68.9811 191.871 60.1307 188.555C55.2486 186.727 50.4859 181.604 56.0837 179.324C71.8294 172.91 78.1362 161.869 81.6551 135.344C82.8209 126.556 57.339 105.699 49.028 99.1061L49.2391 97.1451C49.2391 97.1451 47.1403 52.9075 49.2391 47.4243C50.7071 43.5891 75.605 39.6246 93.4305 36.7863Z" fill="#117CFF"/>
<path d="M93.4305 36.7863C101.09 35.5667 107.443 34.5551 110.071 33.8509C114.311 32.7151 123.597 36.9344 132.442 42.0692C127.761 43.971 118.097 44.9132 107.501 45.9462C86.6523 47.9788 62.1926 50.3634 64.9708 61.1026C67.692 71.6219 80.5519 77.8667 89.8841 82.3985C90.2183 82.5608 90.5481 82.7209 90.8727 82.879C89.3844 84.6447 88.3583 86.528 87.8796 88.163C86.4348 93.0975 91.9478 99.2977 91.9478 99.2977C91.9478 99.2977 97.2877 103.153 105.584 103.627C105.727 104.287 105.933 105.07 106.159 105.93C107.012 109.174 108.15 113.5 107.223 116.317C106.131 119.633 103.96 122.327 101.812 124.993C99.0454 128.427 96.3157 131.815 95.9747 136.427C95.7475 139.499 96.2198 143.148 96.7052 146.898C97.5316 153.282 98.396 159.959 95.911 164.585C93.7214 168.66 90.6215 170.982 85.7514 172.16C80.1553 173.513 76.9739 174.909 74.7019 180.839C73.5915 183.736 77.5401 188.226 78.535 192.664C78.535 192.664 68.9811 191.871 60.1307 188.555C55.2486 186.727 50.4859 181.604 56.0837 179.324C71.8294 172.91 78.1362 161.869 81.6551 135.344C82.8209 126.556 57.339 105.699 49.028 99.1061L49.2391 97.1451C49.2391 97.1451 47.1403 52.9075 49.2391 47.4243C50.7071 43.5891 75.605 39.6246 93.4305 36.7863Z" fill="black" fill-opacity="0.2"/>
<path d="M113.333 47.6488C117.259 47.31 129.893 46.2197 135.651 43.9821C143.793 48.9603 150.951 54.2689 152.558 56.2124C153.532 57.39 155.161 60.5019 156.986 64.4769C154.01 66.1912 150.232 68.454 146.183 70.8796L146.177 70.883C136.118 76.9082 124.383 83.9371 119.094 86.0607C116.128 80.0565 104.831 76.6305 104.831 76.6305C100.435 76.3411 96.6599 77.8796 93.7712 80.104C83.6245 75.3944 72.6912 69.1869 69.5215 60.411C66.8167 52.9221 112.166 47.7577 112.166 47.7577C112.262 47.7412 112.675 47.7056 113.333 47.6488Z" fill="#117CFF"/>
<path d="M113.333 47.6488C117.259 47.31 129.893 46.2197 135.651 43.9821C143.793 48.9603 150.951 54.2689 152.558 56.2124C153.532 57.39 155.161 60.5019 156.986 64.4769C154.01 66.1912 150.232 68.454 146.183 70.8796L146.177 70.883C136.118 76.9082 124.383 83.9371 119.094 86.0607C116.128 80.0565 104.831 76.6305 104.831 76.6305C100.435 76.3411 96.6599 77.8796 93.7712 80.104C83.6245 75.3944 72.6912 69.1869 69.5215 60.411C66.8167 52.9221 112.166 47.7577 112.166 47.7577C112.262 47.7412 112.675 47.7056 113.333 47.6488Z" fill="black" fill-opacity="0.2"/>
<path d="M48.0729 107.979C51.4486 111.375 55.7849 114.509 60.1307 117.648C70.4242 125.086 80.7715 132.562 78.535 143.666C77.0813 150.884 70.7335 165.466 64.9707 170.676C34.2467 198.454 45.0059 134.829 47.6262 111.948C47.7982 110.446 47.9511 109.111 48.0729 107.979Z" fill="#117CFF"/>
<path d="M48.0729 107.979C51.4486 111.375 55.7849 114.509 60.1307 117.648C70.4242 125.086 80.7715 132.562 78.535 143.666C77.0813 150.884 70.7335 165.466 64.9707 170.676C34.2467 198.454 45.0059 134.829 47.6262 111.948C47.7982 110.446 47.9511 109.111 48.0729 107.979Z" fill="black" fill-opacity="0.2"/>
<path d="M81.6551 193.353C88.8093 194.784 120.622 200.454 130.514 203.798C135.715 205.555 143.657 202.731 150.547 199.292L151.011 198.284C152 196.133 152.951 194.067 153.179 193.353C154.433 189.418 154.154 187.634 153.877 186.336C152.883 181.69 150.14 180.238 147.458 178.818C146.544 178.334 145.637 177.854 144.809 177.252C142.834 175.818 140.845 174.414 138.843 173.035C136.712 173.639 134.653 174.084 133.02 174.315C127.687 175.07 117.973 163.319 116.424 158.553C115.459 157.953 114.493 157.354 113.527 156.755C111.813 155.692 110 154.813 108.185 153.934C106.346 153.043 104.506 152.151 102.764 151.066C102.986 155.924 102.992 160.754 101.472 165.331C99.7068 170.65 93.4745 172.764 87.3682 174.837C79.0076 177.674 77.7555 182.563 81.6551 193.353Z" fill="#117CFF"/>
<path d="M81.6551 193.353C88.8093 194.784 120.622 200.454 130.514 203.798C135.715 205.555 143.657 202.731 150.547 199.292L151.011 198.284C152 196.133 152.951 194.067 153.179 193.353C154.433 189.418 154.154 187.634 153.877 186.336C152.883 181.69 150.14 180.238 147.458 178.818C146.544 178.334 145.637 177.854 144.809 177.252C142.834 175.818 140.845 174.414 138.843 173.035C136.712 173.639 134.653 174.084 133.02 174.315C127.687 175.07 117.973 163.319 116.424 158.553C115.459 157.953 114.493 157.354 113.527 156.755C111.813 155.692 110 154.813 108.185 153.934C106.346 153.043 104.506 152.151 102.764 151.066C102.986 155.924 102.992 160.754 101.472 165.331C99.7068 170.65 93.4745 172.764 87.3682 174.837C79.0076 177.674 77.7555 182.563 81.6551 193.353Z" fill="black" fill-opacity="0.2"/>
<path d="M107.185 146.505C105.48 145.557 103.799 144.622 102.433 143.838C102.364 140.962 102.449 138.115 102.963 135.344C103.506 132.416 105.277 129.753 107.1 127.012C109.091 124.018 111.144 120.93 111.726 117.302C111.957 115.862 111.97 114.389 111.843 112.938C111.691 111.191 110.062 106.643 108.466 103.648C116.156 103.303 118.111 99.7232 118.111 99.7232C118.111 99.7232 120.319 92.7953 119.758 88.2469C130.442 84.9457 149.298 74.5864 158.305 67.421C161.009 73.6002 163.892 81.0266 165.61 86.5711C163.354 88.0707 161.2 89.7644 159.056 91.4505C156.558 93.4151 154.074 95.3695 151.455 96.9941C148.983 98.5279 145.891 99.8161 142.67 101.158C133.819 104.845 123.99 108.941 123.344 119.656C122.981 125.691 127.557 132.847 131.355 138.787L131.356 138.789C131.761 139.422 132.157 140.041 132.537 140.644C129.941 140.531 127.484 141.227 126.202 143.63C124.887 146.097 122.802 148.223 120.877 150.187C119.926 151.157 119.015 152.087 118.253 152.999C116.952 152.198 115.652 151.397 114.352 150.594C112.71 149.579 109.918 148.026 107.185 146.505Z" fill="#117CFF"/>
<path d="M107.185 146.505C105.48 145.557 103.799 144.622 102.433 143.838C102.364 140.962 102.449 138.115 102.963 135.344C103.506 132.416 105.277 129.753 107.1 127.012C109.091 124.018 111.144 120.93 111.726 117.302C111.957 115.862 111.97 114.389 111.843 112.938C111.691 111.191 110.062 106.643 108.466 103.648C116.156 103.303 118.111 99.7232 118.111 99.7232C118.111 99.7232 120.319 92.7953 119.758 88.2469C130.442 84.9457 149.298 74.5864 158.305 67.421C161.009 73.6002 163.892 81.0266 165.61 86.5711C163.354 88.0707 161.2 89.7644 159.056 91.4505C156.558 93.4151 154.074 95.3695 151.455 96.9941C148.983 98.5279 145.891 99.8161 142.67 101.158C133.819 104.845 123.99 108.941 123.344 119.656C122.981 125.691 127.557 132.847 131.355 138.787L131.356 138.789C131.761 139.422 132.157 140.041 132.537 140.644C129.941 140.531 127.484 141.227 126.202 143.63C124.887 146.097 122.802 148.223 120.877 150.187C119.926 151.157 119.015 152.087 118.253 152.999C116.952 152.198 115.652 151.397 114.352 150.594C112.71 149.579 109.918 148.026 107.185 146.505Z" fill="black" fill-opacity="0.2"/>
<path d="M141.731 143.63C141.117 143.136 139.043 142.072 136.564 141.354C136.298 140.953 135.899 140.428 135.52 139.932L135.519 139.931C135.118 139.405 134.741 138.911 134.574 138.629C134.443 138.408 134.308 138.183 134.171 137.952C130.314 131.477 124.385 121.523 128.803 114.576C133.484 107.215 140.954 104.138 148.523 101.02C152.202 99.5041 155.905 97.9789 159.322 95.9473C160.139 95.4615 163.439 92.7567 166.567 89.9516C167.072 91.9793 167.287 93.4964 167.093 94.2268C166.673 95.8118 162.337 99.9662 157.545 104.558C149.779 111.999 140.813 120.59 145.381 121.247C152.767 122.311 180.446 146.233 181.891 156.839C183.337 167.444 164.419 190.993 164.419 190.993C164.419 190.993 158.987 194.891 152.149 198.473C159.247 185.069 155.347 178.775 154.539 177.966C154.008 177.434 153.458 176.94 152.9 176.463C152.158 175.828 151.402 175.219 150.64 174.626C148.904 173.275 147.15 171.96 145.381 170.676C147.787 169.564 149.715 168.29 150.442 166.968C152.344 163.512 153.851 155.299 153.851 155.299C153.631 151.255 146.798 146.904 143.408 144.747C142.622 144.246 142.021 143.864 141.731 143.63Z" fill="#117CFF"/>
<path d="M141.731 143.63C141.117 143.136 139.043 142.072 136.564 141.354C136.298 140.953 135.899 140.428 135.52 139.932L135.519 139.931C135.118 139.405 134.741 138.911 134.574 138.629C134.443 138.408 134.308 138.183 134.171 137.952C130.314 131.477 124.385 121.523 128.803 114.576C133.484 107.215 140.954 104.138 148.523 101.02C152.202 99.5041 155.905 97.9789 159.322 95.9473C160.139 95.4615 163.439 92.7567 166.567 89.9516C167.072 91.9793 167.287 93.4964 167.093 94.2268C166.673 95.8118 162.337 99.9662 157.545 104.558C149.779 111.999 140.813 120.59 145.381 121.247C152.767 122.311 180.446 146.233 181.891 156.839C183.337 167.444 164.419 190.993 164.419 190.993C164.419 190.993 158.987 194.891 152.149 198.473C159.247 185.069 155.347 178.775 154.539 177.966C154.008 177.434 153.458 176.94 152.9 176.463C152.158 175.828 151.402 175.219 150.64 174.626C148.904 173.275 147.15 171.96 145.381 170.676C147.787 169.564 149.715 168.29 150.442 166.968C152.344 163.512 153.851 155.299 153.851 155.299C153.631 151.255 146.798 146.904 143.408 144.747C142.622 144.246 142.021 143.864 141.731 143.63Z" fill="black" fill-opacity="0.2"/>
<path d="M4.09204 36.7309C4.09204 16.8487 20.2098 0.730957 40.092 0.730957H185.543C205.426 0.730957 221.543 16.8487 221.543 36.731V201.269C221.543 221.151 205.426 237.269 185.543 237.269H40.0921C20.2098 237.269 4.09204 221.151 4.09204 201.269V36.7309Z" fill="#65FFAF"/>
<path d="M93.4305 36.7863C101.09 35.5667 107.443 34.5551 110.071 33.8509C114.311 32.7151 123.597 36.9344 132.442 42.0692C127.761 43.971 118.097 44.9132 107.501 45.9462C86.6523 47.9788 62.1926 50.3634 64.9708 61.1026C67.692 71.6219 80.5519 77.8667 89.8841 82.3985C90.2183 82.5608 90.5481 82.7209 90.8727 82.879C89.3844 84.6447 88.3583 86.528 87.8796 88.163C86.4348 93.0975 91.9478 99.2977 91.9478 99.2977C91.9478 99.2977 97.2877 103.153 105.584 103.627C105.727 104.287 105.933 105.07 106.159 105.93C107.012 109.174 108.15 113.5 107.223 116.317C106.131 119.633 103.96 122.327 101.812 124.993C99.0454 128.427 96.3157 131.815 95.9747 136.427C95.7475 139.499 96.2198 143.148 96.7052 146.898C97.5316 153.282 98.396 159.959 95.911 164.585C93.7214 168.66 90.6215 170.982 85.7514 172.16C80.1553 173.513 76.9739 174.909 74.7019 180.839C73.5915 183.736 77.5401 188.226 78.535 192.664C78.535 192.664 68.9811 191.871 60.1307 188.555C55.2486 186.727 50.4859 181.604 56.0837 179.324C71.8294 172.91 78.1362 161.869 81.6551 135.344C82.8209 126.556 57.339 105.699 49.028 99.1061L49.2391 97.1451C49.2391 97.1451 47.1403 52.9075 49.2391 47.4243C50.7071 43.5891 75.605 39.6246 93.4305 36.7863Z" fill="#117CFF"/>
<path d="M93.4305 36.7863C101.09 35.5667 107.443 34.5551 110.071 33.8509C114.311 32.7151 123.597 36.9344 132.442 42.0692C127.761 43.971 118.097 44.9132 107.501 45.9462C86.6523 47.9788 62.1926 50.3634 64.9708 61.1026C67.692 71.6219 80.5519 77.8667 89.8841 82.3985C90.2183 82.5608 90.5481 82.7209 90.8727 82.879C89.3844 84.6447 88.3583 86.528 87.8796 88.163C86.4348 93.0975 91.9478 99.2977 91.9478 99.2977C91.9478 99.2977 97.2877 103.153 105.584 103.627C105.727 104.287 105.933 105.07 106.159 105.93C107.012 109.174 108.15 113.5 107.223 116.317C106.131 119.633 103.96 122.327 101.812 124.993C99.0454 128.427 96.3157 131.815 95.9747 136.427C95.7475 139.499 96.2198 143.148 96.7052 146.898C97.5316 153.282 98.396 159.959 95.911 164.585C93.7214 168.66 90.6215 170.982 85.7514 172.16C80.1553 173.513 76.9739 174.909 74.7019 180.839C73.5915 183.736 77.5401 188.226 78.535 192.664C78.535 192.664 68.9811 191.871 60.1307 188.555C55.2486 186.727 50.4859 181.604 56.0837 179.324C71.8294 172.91 78.1362 161.869 81.6551 135.344C82.8209 126.556 57.339 105.699 49.028 99.1061L49.2391 97.1451C49.2391 97.1451 47.1403 52.9075 49.2391 47.4243C50.7071 43.5891 75.605 39.6246 93.4305 36.7863Z" fill="black" fill-opacity="0.2"/>
<path d="M113.333 47.6488C117.259 47.31 129.893 46.2197 135.651 43.9821C143.793 48.9603 150.951 54.2689 152.558 56.2124C153.532 57.39 155.161 60.5019 156.986 64.4769C154.01 66.1912 150.232 68.454 146.183 70.8796L146.177 70.883C136.118 76.9082 124.383 83.9371 119.094 86.0607C116.128 80.0565 104.831 76.6305 104.831 76.6305C100.435 76.3411 96.6599 77.8796 93.7712 80.104C83.6245 75.3944 72.6912 69.1869 69.5215 60.411C66.8167 52.9221 112.166 47.7577 112.166 47.7577C112.262 47.7412 112.675 47.7056 113.333 47.6488Z" fill="#117CFF"/>
<path d="M113.333 47.6488C117.259 47.31 129.893 46.2197 135.651 43.9821C143.793 48.9603 150.951 54.2689 152.558 56.2124C153.532 57.39 155.161 60.5019 156.986 64.4769C154.01 66.1912 150.232 68.454 146.183 70.8796L146.177 70.883C136.118 76.9082 124.383 83.9371 119.094 86.0607C116.128 80.0565 104.831 76.6305 104.831 76.6305C100.435 76.3411 96.6599 77.8796 93.7712 80.104C83.6245 75.3944 72.6912 69.1869 69.5215 60.411C66.8167 52.9221 112.166 47.7577 112.166 47.7577C112.262 47.7412 112.675 47.7056 113.333 47.6488Z" fill="black" fill-opacity="0.2"/>
<path d="M48.0729 107.979C51.4486 111.375 55.7849 114.509 60.1307 117.648C70.4242 125.086 80.7715 132.562 78.535 143.666C77.0813 150.884 70.7335 165.466 64.9707 170.676C34.2467 198.454 45.0059 134.829 47.6262 111.948C47.7982 110.446 47.9511 109.111 48.0729 107.979Z" fill="#117CFF"/>
<path d="M48.0729 107.979C51.4486 111.375 55.7849 114.509 60.1307 117.648C70.4242 125.086 80.7715 132.562 78.535 143.666C77.0813 150.884 70.7335 165.466 64.9707 170.676C34.2467 198.454 45.0059 134.829 47.6262 111.948C47.7982 110.446 47.9511 109.111 48.0729 107.979Z" fill="black" fill-opacity="0.2"/>
<path d="M81.6551 193.353C88.8093 194.784 120.622 200.454 130.514 203.798C135.715 205.555 143.657 202.731 150.547 199.292L151.011 198.284C152 196.133 152.951 194.067 153.179 193.353C154.433 189.418 154.154 187.634 153.877 186.336C152.883 181.69 150.14 180.238 147.458 178.818C146.544 178.334 145.637 177.854 144.809 177.252C142.834 175.818 140.845 174.414 138.843 173.035C136.712 173.639 134.653 174.084 133.02 174.315C127.687 175.07 117.973 163.319 116.424 158.553C115.459 157.953 114.493 157.354 113.527 156.755C111.813 155.692 110 154.813 108.185 153.934C106.346 153.043 104.506 152.151 102.764 151.066C102.986 155.924 102.992 160.754 101.472 165.331C99.7068 170.65 93.4745 172.764 87.3682 174.837C79.0076 177.674 77.7555 182.563 81.6551 193.353Z" fill="#117CFF"/>
<path d="M81.6551 193.353C88.8093 194.784 120.622 200.454 130.514 203.798C135.715 205.555 143.657 202.731 150.547 199.292L151.011 198.284C152 196.133 152.951 194.067 153.179 193.353C154.433 189.418 154.154 187.634 153.877 186.336C152.883 181.69 150.14 180.238 147.458 178.818C146.544 178.334 145.637 177.854 144.809 177.252C142.834 175.818 140.845 174.414 138.843 173.035C136.712 173.639 134.653 174.084 133.02 174.315C127.687 175.07 117.973 163.319 116.424 158.553C115.459 157.953 114.493 157.354 113.527 156.755C111.813 155.692 110 154.813 108.185 153.934C106.346 153.043 104.506 152.151 102.764 151.066C102.986 155.924 102.992 160.754 101.472 165.331C99.7068 170.65 93.4745 172.764 87.3682 174.837C79.0076 177.674 77.7555 182.563 81.6551 193.353Z" fill="black" fill-opacity="0.2"/>
<path d="M107.185 146.505C105.48 145.557 103.799 144.622 102.433 143.838C102.364 140.962 102.449 138.115 102.963 135.344C103.506 132.416 105.277 129.753 107.1 127.012C109.091 124.018 111.144 120.93 111.726 117.302C111.957 115.862 111.97 114.389 111.843 112.938C111.691 111.191 110.062 106.643 108.466 103.648C116.156 103.303 118.111 99.7232 118.111 99.7232C118.111 99.7232 120.319 92.7953 119.758 88.2469C130.442 84.9457 149.298 74.5864 158.305 67.421C161.009 73.6002 163.892 81.0266 165.61 86.5711C163.354 88.0707 161.2 89.7644 159.056 91.4505C156.558 93.4151 154.074 95.3695 151.455 96.9941C148.983 98.5279 145.891 99.8161 142.67 101.158C133.819 104.845 123.99 108.941 123.344 119.656C122.981 125.691 127.557 132.847 131.355 138.787L131.356 138.789C131.761 139.422 132.157 140.041 132.537 140.644C129.941 140.531 127.484 141.227 126.202 143.63C124.887 146.097 122.802 148.223 120.877 150.187C119.926 151.157 119.015 152.087 118.253 152.999C116.952 152.198 115.652 151.397 114.352 150.594C112.71 149.579 109.918 148.026 107.185 146.505Z" fill="#117CFF"/>
<path d="M107.185 146.505C105.48 145.557 103.799 144.622 102.433 143.838C102.364 140.962 102.449 138.115 102.963 135.344C103.506 132.416 105.277 129.753 107.1 127.012C109.091 124.018 111.144 120.93 111.726 117.302C111.957 115.862 111.97 114.389 111.843 112.938C111.691 111.191 110.062 106.643 108.466 103.648C116.156 103.303 118.111 99.7232 118.111 99.7232C118.111 99.7232 120.319 92.7953 119.758 88.2469C130.442 84.9457 149.298 74.5864 158.305 67.421C161.009 73.6002 163.892 81.0266 165.61 86.5711C163.354 88.0707 161.2 89.7644 159.056 91.4505C156.558 93.4151 154.074 95.3695 151.455 96.9941C148.983 98.5279 145.891 99.8161 142.67 101.158C133.819 104.845 123.99 108.941 123.344 119.656C122.981 125.691 127.557 132.847 131.355 138.787L131.356 138.789C131.761 139.422 132.157 140.041 132.537 140.644C129.941 140.531 127.484 141.227 126.202 143.63C124.887 146.097 122.802 148.223 120.877 150.187C119.926 151.157 119.015 152.087 118.253 152.999C116.952 152.198 115.652 151.397 114.352 150.594C112.71 149.579 109.918 148.026 107.185 146.505Z" fill="black" fill-opacity="0.2"/>
<path d="M141.731 143.63C141.117 143.136 139.043 142.072 136.564 141.354C136.298 140.953 135.899 140.428 135.52 139.932L135.519 139.931C135.118 139.405 134.741 138.911 134.574 138.629C134.443 138.408 134.308 138.183 134.171 137.952C130.314 131.477 124.385 121.523 128.803 114.576C133.484 107.215 140.954 104.138 148.523 101.02C152.202 99.5041 155.905 97.9789 159.322 95.9473C160.139 95.4615 163.439 92.7567 166.567 89.9516C167.072 91.9793 167.287 93.4964 167.093 94.2268C166.673 95.8118 162.337 99.9662 157.545 104.558C149.779 111.999 140.813 120.59 145.381 121.247C152.767 122.311 180.446 146.233 181.891 156.839C183.337 167.444 164.419 190.993 164.419 190.993C164.419 190.993 158.987 194.891 152.149 198.473C159.247 185.069 155.347 178.775 154.539 177.966C154.008 177.434 153.458 176.94 152.9 176.463C152.158 175.828 151.402 175.219 150.64 174.626C148.904 173.275 147.15 171.96 145.381 170.676C147.787 169.564 149.715 168.29 150.442 166.968C152.344 163.512 153.851 155.299 153.851 155.299C153.631 151.255 146.798 146.904 143.408 144.747C142.622 144.246 142.021 143.864 141.731 143.63Z" fill="#117CFF"/>
<path d="M141.731 143.63C141.117 143.136 139.043 142.072 136.564 141.354C136.298 140.953 135.899 140.428 135.52 139.932L135.519 139.931C135.118 139.405 134.741 138.911 134.574 138.629C134.443 138.408 134.308 138.183 134.171 137.952C130.314 131.477 124.385 121.523 128.803 114.576C133.484 107.215 140.954 104.138 148.523 101.02C152.202 99.5041 155.905 97.9789 159.322 95.9473C160.139 95.4615 163.439 92.7567 166.567 89.9516C167.072 91.9793 167.287 93.4964 167.093 94.2268C166.673 95.8118 162.337 99.9662 157.545 104.558C149.779 111.999 140.813 120.59 145.381 121.247C152.767 122.311 180.446 146.233 181.891 156.839C183.337 167.444 164.419 190.993 164.419 190.993C164.419 190.993 158.987 194.891 152.149 198.473C159.247 185.069 155.347 178.775 154.539 177.966C154.008 177.434 153.458 176.94 152.9 176.463C152.158 175.828 151.402 175.219 150.64 174.626C148.904 173.275 147.15 171.96 145.381 170.676C147.787 169.564 149.715 168.29 150.442 166.968C152.344 163.512 153.851 155.299 153.851 155.299C153.631 151.255 146.798 146.904 143.408 144.747C142.622 144.246 142.021 143.864 141.731 143.63Z" fill="black" fill-opacity="0.2"/>
<path d="M4.09204 36.7309C4.09204 16.8487 20.2098 0.730957 40.092 0.730957H185.543C205.426 0.730957 221.543 16.8487 221.543 36.731V201.269C221.543 221.151 205.426 237.269 185.543 237.269H40.0921C20.2098 237.269 4.09204 221.151 4.09204 201.269V36.7309Z" fill="#65FFAF"/>
<path d="M93.4305 36.7863C101.09 35.5667 107.443 34.5551 110.071 33.8509C114.311 32.7151 123.597 36.9344 132.442 42.0692C127.761 43.971 118.097 44.9132 107.501 45.9462C86.6523 47.9788 62.1926 50.3634 64.9708 61.1026C67.692 71.6219 80.5519 77.8667 89.8841 82.3985C90.2183 82.5608 90.5481 82.7209 90.8727 82.879C89.3844 84.6447 88.3583 86.528 87.8796 88.163C86.4348 93.0975 91.9478 99.2977 91.9478 99.2977C91.9478 99.2977 97.2877 103.153 105.584 103.627C105.727 104.287 105.933 105.07 106.159 105.93C107.012 109.174 108.15 113.5 107.223 116.317C106.131 119.633 103.96 122.327 101.812 124.993C99.0454 128.427 96.3157 131.815 95.9747 136.427C95.7475 139.499 96.2198 143.148 96.7052 146.898C97.5316 153.282 98.396 159.959 95.911 164.585C93.7214 168.66 90.6215 170.982 85.7514 172.16C80.1553 173.513 76.9739 174.909 74.7019 180.839C73.5915 183.736 77.5401 188.226 78.535 192.664C78.535 192.664 68.9811 191.871 60.1307 188.555C55.2486 186.727 50.4859 181.604 56.0837 179.324C71.8294 172.91 78.1362 161.869 81.6551 135.344C82.8209 126.556 57.339 105.699 49.028 99.1061L49.2391 97.1451C49.2391 97.1451 47.1403 52.9075 49.2391 47.4243C50.7071 43.5891 75.605 39.6246 93.4305 36.7863Z" fill="#117CFF"/>
<path d="M93.4305 36.7863C101.09 35.5667 107.443 34.5551 110.071 33.8509C114.311 32.7151 123.597 36.9344 132.442 42.0692C127.761 43.971 118.097 44.9132 107.501 45.9462C86.6523 47.9788 62.1926 50.3634 64.9708 61.1026C67.692 71.6219 80.5519 77.8667 89.8841 82.3985C90.2183 82.5608 90.5481 82.7209 90.8727 82.879C89.3844 84.6447 88.3583 86.528 87.8796 88.163C86.4348 93.0975 91.9478 99.2977 91.9478 99.2977C91.9478 99.2977 97.2877 103.153 105.584 103.627C105.727 104.287 105.933 105.07 106.159 105.93C107.012 109.174 108.15 113.5 107.223 116.317C106.131 119.633 103.96 122.327 101.812 124.993C99.0454 128.427 96.3157 131.815 95.9747 136.427C95.7475 139.499 96.2198 143.148 96.7052 146.898C97.5316 153.282 98.396 159.959 95.911 164.585C93.7214 168.66 90.6215 170.982 85.7514 172.16C80.1553 173.513 76.9739 174.909 74.7019 180.839C73.5915 183.736 77.5401 188.226 78.535 192.664C78.535 192.664 68.9811 191.871 60.1307 188.555C55.2486 186.727 50.4859 181.604 56.0837 179.324C71.8294 172.91 78.1362 161.869 81.6551 135.344C82.8209 126.556 57.339 105.699 49.028 99.1061L49.2391 97.1451C49.2391 97.1451 47.1403 52.9075 49.2391 47.4243C50.7071 43.5891 75.605 39.6246 93.4305 36.7863Z" fill="black" fill-opacity="0.2"/>
<path d="M113.333 47.6488C117.259 47.31 129.893 46.2197 135.651 43.9821C143.793 48.9603 150.951 54.2689 152.558 56.2124C153.532 57.39 155.161 60.5019 156.986 64.4769C154.01 66.1912 150.232 68.454 146.183 70.8796L146.177 70.883C136.118 76.9082 124.383 83.9371 119.094 86.0607C116.128 80.0565 104.831 76.6305 104.831 76.6305C100.435 76.3411 96.6599 77.8796 93.7712 80.104C83.6245 75.3944 72.6912 69.1869 69.5215 60.411C66.8167 52.9221 112.166 47.7577 112.166 47.7577C112.262 47.7412 112.675 47.7056 113.333 47.6488Z" fill="#117CFF"/>
<path d="M113.333 47.6488C117.259 47.31 129.893 46.2197 135.651 43.9821C143.793 48.9603 150.951 54.2689 152.558 56.2124C153.532 57.39 155.161 60.5019 156.986 64.4769C154.01 66.1912 150.232 68.454 146.183 70.8796L146.177 70.883C136.118 76.9082 124.383 83.9371 119.094 86.0607C116.128 80.0565 104.831 76.6305 104.831 76.6305C100.435 76.3411 96.6599 77.8796 93.7712 80.104C83.6245 75.3944 72.6912 69.1869 69.5215 60.411C66.8167 52.9221 112.166 47.7577 112.166 47.7577C112.262 47.7412 112.675 47.7056 113.333 47.6488Z" fill="black" fill-opacity="0.2"/>
<path d="M48.0729 107.979C51.4486 111.375 55.7849 114.509 60.1307 117.648C70.4242 125.086 80.7715 132.562 78.535 143.666C77.0813 150.884 70.7335 165.466 64.9707 170.676C34.2467 198.454 45.0059 134.829 47.6262 111.948C47.7982 110.446 47.9511 109.111 48.0729 107.979Z" fill="#117CFF"/>
<path d="M48.0729 107.979C51.4486 111.375 55.7849 114.509 60.1307 117.648C70.4242 125.086 80.7715 132.562 78.535 143.666C77.0813 150.884 70.7335 165.466 64.9707 170.676C34.2467 198.454 45.0059 134.829 47.6262 111.948C47.7982 110.446 47.9511 109.111 48.0729 107.979Z" fill="black" fill-opacity="0.2"/>
<path d="M81.6551 193.353C88.8093 194.784 120.622 200.454 130.514 203.798C135.715 205.555 143.657 202.731 150.547 199.292L151.011 198.284C152 196.133 152.951 194.067 153.179 193.353C154.433 189.418 154.154 187.634 153.877 186.336C152.883 181.69 150.14 180.238 147.458 178.818C146.544 178.334 145.637 177.854 144.809 177.252C142.834 175.818 140.845 174.414 138.843 173.035C136.712 173.639 134.653 174.084 133.02 174.315C127.687 175.07 117.973 163.319 116.424 158.553C115.459 157.953 114.493 157.354 113.527 156.755C111.813 155.692 110 154.813 108.185 153.934C106.346 153.043 104.506 152.151 102.764 151.066C102.986 155.924 102.992 160.754 101.472 165.331C99.7068 170.65 93.4745 172.764 87.3682 174.837C79.0076 177.674 77.7555 182.563 81.6551 193.353Z" fill="#117CFF"/>
<path d="M81.6551 193.353C88.8093 194.784 120.622 200.454 130.514 203.798C135.715 205.555 143.657 202.731 150.547 199.292L151.011 198.284C152 196.133 152.951 194.067 153.179 193.353C154.433 189.418 154.154 187.634 153.877 186.336C152.883 181.69 150.14 180.238 147.458 178.818C146.544 178.334 145.637 177.854 144.809 177.252C142.834 175.818 140.845 174.414 138.843 173.035C136.712 173.639 134.653 174.084 133.02 174.315C127.687 175.07 117.973 163.319 116.424 158.553C115.459 157.953 114.493 157.354 113.527 156.755C111.813 155.692 110 154.813 108.185 153.934C106.346 153.043 104.506 152.151 102.764 151.066C102.986 155.924 102.992 160.754 101.472 165.331C99.7068 170.65 93.4745 172.764 87.3682 174.837C79.0076 177.674 77.7555 182.563 81.6551 193.353Z" fill="black" fill-opacity="0.2"/>
<path d="M107.185 146.505C105.48 145.557 103.799 144.622 102.433 143.838C102.364 140.962 102.449 138.115 102.963 135.344C103.506 132.416 105.277 129.753 107.1 127.012C109.091 124.018 111.144 120.93 111.726 117.302C111.957 115.862 111.97 114.389 111.843 112.938C111.691 111.191 110.062 106.643 108.466 103.648C116.156 103.303 118.111 99.7232 118.111 99.7232C118.111 99.7232 120.319 92.7953 119.758 88.2469C130.442 84.9457 149.298 74.5864 158.305 67.421C161.009 73.6002 163.892 81.0266 165.61 86.5711C163.354 88.0707 161.2 89.7644 159.056 91.4505C156.558 93.4151 154.074 95.3695 151.455 96.9941C148.983 98.5279 145.891 99.8161 142.67 101.158C133.819 104.845 123.99 108.941 123.344 119.656C122.981 125.691 127.557 132.847 131.355 138.787L131.356 138.789C131.761 139.422 132.157 140.041 132.537 140.644C129.941 140.531 127.484 141.227 126.202 143.63C124.887 146.097 122.802 148.223 120.877 150.187C119.926 151.157 119.015 152.087 118.253 152.999C116.952 152.198 115.652 151.397 114.352 150.594C112.71 149.579 109.918 148.026 107.185 146.505Z" fill="#117CFF"/>
<path d="M107.185 146.505C105.48 145.557 103.799 144.622 102.433 143.838C102.364 140.962 102.449 138.115 102.963 135.344C103.506 132.416 105.277 129.753 107.1 127.012C109.091 124.018 111.144 120.93 111.726 117.302C111.957 115.862 111.97 114.389 111.843 112.938C111.691 111.191 110.062 106.643 108.466 103.648C116.156 103.303 118.111 99.7232 118.111 99.7232C118.111 99.7232 120.319 92.7953 119.758 88.2469C130.442 84.9457 149.298 74.5864 158.305 67.421C161.009 73.6002 163.892 81.0266 165.61 86.5711C163.354 88.0707 161.2 89.7644 159.056 91.4505C156.558 93.4151 154.074 95.3695 151.455 96.9941C148.983 98.5279 145.891 99.8161 142.67 101.158C133.819 104.845 123.99 108.941 123.344 119.656C122.981 125.691 127.557 132.847 131.355 138.787L131.356 138.789C131.761 139.422 132.157 140.041 132.537 140.644C129.941 140.531 127.484 141.227 126.202 143.63C124.887 146.097 122.802 148.223 120.877 150.187C119.926 151.157 119.015 152.087 118.253 152.999C116.952 152.198 115.652 151.397 114.352 150.594C112.71 149.579 109.918 148.026 107.185 146.505Z" fill="black" fill-opacity="0.2"/>
<path d="M141.731 143.63C141.117 143.136 139.043 142.072 136.564 141.354C136.298 140.953 135.899 140.428 135.52 139.932L135.519 139.931C135.118 139.405 134.741 138.911 134.574 138.629C134.443 138.408 134.308 138.183 134.171 137.952C130.314 131.477 124.385 121.523 128.803 114.576C133.484 107.215 140.954 104.138 148.523 101.02C152.202 99.5041 155.905 97.9789 159.322 95.9473C160.139 95.4615 163.439 92.7567 166.567 89.9516C167.072 91.9793 167.287 93.4964 167.093 94.2268C166.673 95.8118 162.337 99.9662 157.545 104.558C149.779 111.999 140.813 120.59 145.381 121.247C152.767 122.311 180.446 146.233 181.891 156.839C183.337 167.444 164.419 190.993 164.419 190.993C164.419 190.993 158.987 194.891 152.149 198.473C159.247 185.069 155.347 178.775 154.539 177.966C154.008 177.434 153.458 176.94 152.9 176.463C152.158 175.828 151.402 175.219 150.64 174.626C148.904 173.275 147.15 171.96 145.381 170.676C147.787 169.564 149.715 168.29 150.442 166.968C152.344 163.512 153.851 155.299 153.851 155.299C153.631 151.255 146.798 146.904 143.408 144.747C142.622 144.246 142.021 143.864 141.731 143.63Z" fill="#117CFF"/>
<path d="M141.731 143.63C141.117 143.136 139.043 142.072 136.564 141.354C136.298 140.953 135.899 140.428 135.52 139.932L135.519 139.931C135.118 139.405 134.741 138.911 134.574 138.629C134.443 138.408 134.308 138.183 134.171 137.952C130.314 131.477 124.385 121.523 128.803 114.576C133.484 107.215 140.954 104.138 148.523 101.02C152.202 99.5041 155.905 97.9789 159.322 95.9473C160.139 95.4615 163.439 92.7567 166.567 89.9516C167.072 91.9793 167.287 93.4964 167.093 94.2268C166.673 95.8118 162.337 99.9662 157.545 104.558C149.779 111.999 140.813 120.59 145.381 121.247C152.767 122.311 180.446 146.233 181.891 156.839C183.337 167.444 164.419 190.993 164.419 190.993C164.419 190.993 158.987 194.891 152.149 198.473C159.247 185.069 155.347 178.775 154.539 177.966C154.008 177.434 153.458 176.94 152.9 176.463C152.158 175.828 151.402 175.219 150.64 174.626C148.904 173.275 147.15 171.96 145.381 170.676C147.787 169.564 149.715 168.29 150.442 166.968C152.344 163.512 153.851 155.299 153.851 155.299C153.631 151.255 146.798 146.904 143.408 144.747C142.622 144.246 142.021 143.864 141.731 143.63Z" fill="black" fill-opacity="0.2"/>
</g>
<defs>
<filter id="filter0_d_12_25" x="0.092041" y="0.730957" width="225.451" height="244.538" filterUnits="userSpaceOnUse" color-interpolation-filters="sRGB">
<feFlood flood-opacity="0" result="BackgroundImageFix"/>
<feColorMatrix in="SourceAlpha" type="matrix" values="0 0 0 0 0 0 0 0 0 0 0 0 0 0 0 0 0 0 127 0" result="hardAlpha"/>
<feOffset dy="4"/>
<feGaussianBlur stdDeviation="2"/>
<feComposite in2="hardAlpha" operator="out"/>
<feColorMatrix type="matrix" values="0 0 0 0 0 0 0 0 0 0 0 0 0 0 0 0 0 0 0.25 0"/>
<feBlend mode="normal" in2="BackgroundImageFix" result="effect1_dropShadow_12_25"/>
<feBlend mode="normal" in="SourceGraphic" in2="effect1_dropShadow_12_25" result="shape"/>
</filter>
</defs>
</svg>
