<svg width="147" height="180" viewBox="0 0 147 180" fill="none" xmlns="http://www.w3.org/2000/svg">
<g filter="url(#filter0_d_6_15)">
<path d="M53.8767 3.95233C61.536 2.73276 67.8896 1.7211 70.5176 1.01693C74.7567 -0.118921 84.043 4.10045 92.8879 9.23521C88.2072 11.1371 78.5436 12.0792 67.9473 13.1122C47.0985 15.1448 22.6388 17.5295 25.4169 28.2686C28.1381 38.7879 40.998 45.0327 50.3302 49.5645C50.6645 49.7268 50.9942 49.887 51.3188 50.045C49.8305 51.8107 48.8045 53.694 48.3258 55.329C46.881 60.2635 52.394 66.4637 52.394 66.4637C52.394 66.4637 57.7338 70.3189 66.0306 70.793C66.173 71.4525 66.3791 72.2361 66.6051 73.0956C67.4584 76.3402 68.5962 80.6665 67.669 83.4826C66.577 86.799 64.4064 89.493 62.2582 92.1593C59.4916 95.593 56.7619 98.981 56.4208 103.593C56.1936 106.666 56.6659 110.314 57.1513 114.064C57.9777 120.448 58.8421 127.125 56.3571 131.751C54.1676 135.827 51.0677 138.148 46.1976 139.326C40.6014 140.679 37.4201 142.075 35.148 148.005C34.0377 150.902 37.9862 155.392 38.9812 159.83C38.9812 159.83 29.4273 159.037 20.5769 155.722C15.6948 153.893 10.9321 148.77 16.5299 146.49C32.2756 140.076 38.5824 129.036 42.1012 102.51C43.267 93.722 17.7851 72.8646 9.47414 66.2721L9.68524 64.3111C9.68524 64.3111 7.58645 20.0735 9.68524 14.5903C11.1533 10.7551 36.0512 6.79064 53.8767 3.95233Z" fill="#68ACFF"/>
<path d="M53.8767 3.95233C61.536 2.73276 67.8896 1.7211 70.5176 1.01693C74.7567 -0.118921 84.043 4.10045 92.8879 9.23521C88.2072 11.1371 78.5436 12.0792 67.9473 13.1122C47.0985 15.1448 22.6388 17.5295 25.4169 28.2686C28.1381 38.7879 40.998 45.0327 50.3302 49.5645C50.6645 49.7268 50.9942 49.887 51.3188 50.045C49.8305 51.8107 48.8045 53.694 48.3258 55.329C46.881 60.2635 52.394 66.4637 52.394 66.4637C52.394 66.4637 57.7338 70.3189 66.0306 70.793C66.173 71.4525 66.3791 72.2361 66.6051 73.0956C67.4584 76.3402 68.5962 80.6665 67.669 83.4826C66.577 86.799 64.4064 89.493 62.2582 92.1593C59.4916 95.593 56.7619 98.981 56.4208 103.593C56.1936 106.666 56.6659 110.314 57.1513 114.064C57.9777 120.448 58.8421 127.125 56.3571 131.751C54.1676 135.827 51.0677 138.148 46.1976 139.326C40.6014 140.679 37.4201 142.075 35.148 148.005C34.0377 150.902 37.9862 155.392 38.9812 159.83C38.9812 159.83 29.4273 159.037 20.5769 155.722C15.6948 153.893 10.9321 148.77 16.5299 146.49C32.2756 140.076 38.5824 129.036 42.1012 102.51C43.267 93.722 17.7851 72.8646 9.47414 66.2721L9.68524 64.3111C9.68524 64.3111 7.58645 20.0735 9.68524 14.5903C11.1533 10.7551 36.0512 6.79064 53.8767 3.95233Z" fill="black" fill-opacity="0.2"/>
<path d="M73.7791 14.8148C77.7049 14.476 90.3396 13.3857 96.0968 11.1481C104.239 16.1263 111.397 21.4349 113.004 23.3784C113.978 24.556 115.607 27.6679 117.432 31.6429C114.456 33.3572 110.678 35.62 106.629 38.0456L106.623 38.049C96.5639 44.0742 84.8291 51.1031 79.5398 53.2267C76.5737 47.2225 65.2768 43.7965 65.2768 43.7965C60.8811 43.5071 57.106 45.0457 54.2173 47.27C44.0706 42.5604 33.1374 36.3529 29.9677 27.577C27.2629 20.0881 72.6126 14.9237 72.6126 14.9237C72.7079 14.9073 73.1212 14.8716 73.7791 14.8148Z" fill="#68ACFF"/>
<path d="M73.7791 14.8148C77.7049 14.476 90.3396 13.3857 96.0968 11.1481C104.239 16.1263 111.397 21.4349 113.004 23.3784C113.978 24.556 115.607 27.6679 117.432 31.6429C114.456 33.3572 110.678 35.62 106.629 38.0456L106.623 38.049C96.5639 44.0742 84.8291 51.1031 79.5398 53.2267C76.5737 47.2225 65.2768 43.7965 65.2768 43.7965C60.8811 43.5071 57.106 45.0457 54.2173 47.27C44.0706 42.5604 33.1374 36.3529 29.9677 27.577C27.2629 20.0881 72.6126 14.9237 72.6126 14.9237C72.7079 14.9073 73.1212 14.8716 73.7791 14.8148Z" fill="black" fill-opacity="0.2"/>
<path d="M8.5191 75.1452C11.8948 78.5415 16.231 81.6745 20.5769 84.8145C30.8704 92.2518 41.2177 99.728 38.9812 110.832C37.5275 118.05 31.1797 132.632 25.4169 137.842C-5.30711 165.62 5.45204 101.995 8.07236 79.114C8.24433 77.6125 8.39721 76.2775 8.5191 75.1452Z" fill="#68ACFF"/>
<path d="M8.5191 75.1452C11.8948 78.5415 16.231 81.6745 20.5769 84.8145C30.8704 92.2518 41.2177 99.728 38.9812 110.832C37.5275 118.05 31.1797 132.632 25.4169 137.842C-5.30711 165.62 5.45204 101.995 8.07236 79.114C8.24433 77.6125 8.39721 76.2775 8.5191 75.1452Z" fill="black" fill-opacity="0.2"/>
<path d="M42.1012 160.519C49.2555 161.95 81.0678 167.62 90.9606 170.964C96.1609 172.721 104.103 169.897 110.993 166.458L111.457 165.45C112.447 163.299 113.398 161.233 113.625 160.519C114.88 156.584 114.6 154.8 114.323 153.502C113.329 148.856 110.586 147.404 107.905 145.984C106.99 145.5 106.083 145.02 105.255 144.418C103.28 142.984 101.291 141.58 99.2893 140.201C97.1581 140.805 95.0994 141.25 93.4659 141.481C88.1331 142.236 78.4193 130.485 76.8702 125.719C75.9048 125.119 74.939 124.52 73.9732 123.921C72.2595 122.858 70.4462 121.979 68.6308 121.1C66.7926 120.209 64.9519 119.317 63.2098 118.232C63.4321 123.09 63.4379 127.92 61.9184 132.497C60.1529 137.816 53.9207 139.93 47.8144 142.003C39.4538 144.84 38.2016 149.729 42.1012 160.519Z" fill="#68ACFF"/>
<path d="M42.1012 160.519C49.2555 161.95 81.0678 167.62 90.9606 170.964C96.1609 172.721 104.103 169.897 110.993 166.458L111.457 165.45C112.447 163.299 113.398 161.233 113.625 160.519C114.88 156.584 114.6 154.8 114.323 153.502C113.329 148.856 110.586 147.404 107.905 145.984C106.99 145.5 106.083 145.02 105.255 144.418C103.28 142.984 101.291 141.58 99.2893 140.201C97.1581 140.805 95.0994 141.25 93.4659 141.481C88.1331 142.236 78.4193 130.485 76.8702 125.719C75.9048 125.119 74.939 124.52 73.9732 123.921C72.2595 122.858 70.4462 121.979 68.6308 121.1C66.7926 120.209 64.9519 119.317 63.2098 118.232C63.4321 123.09 63.4379 127.92 61.9184 132.497C60.1529 137.816 53.9207 139.93 47.8144 142.003C39.4538 144.84 38.2016 149.729 42.1012 160.519Z" fill="black" fill-opacity="0.2"/>
<path d="M67.6309 113.671C65.9265 112.724 64.2448 111.788 62.8787 111.004C62.8103 108.128 62.8952 105.281 63.4093 102.51C63.9525 99.5816 65.7234 96.9187 67.5461 94.178C69.5375 91.1836 71.5906 88.0963 72.1721 84.4682C72.4029 83.0283 72.4158 81.5548 72.2891 80.1041C72.1367 78.3572 70.5085 73.8091 68.9118 70.814C76.6017 70.4689 78.5568 66.8892 78.5568 66.8892C78.5568 66.8892 80.7655 59.9613 80.2045 55.4129C90.8882 52.1117 109.744 41.7524 118.751 34.5871C121.455 40.7662 124.338 48.1926 126.056 53.7372C123.8 55.2367 121.646 56.9304 119.503 58.6165C117.005 60.5811 114.52 62.5355 111.901 64.1601C109.429 65.6939 106.337 66.9821 103.116 68.3243C94.2656 72.0115 84.4364 76.1065 83.7905 86.8218C83.4268 92.8571 88.0027 100.013 91.8011 105.953L91.8022 105.955C92.2071 106.588 92.6032 107.207 92.9835 107.81C90.3868 107.697 87.9303 108.393 86.6484 110.796C85.3328 113.263 83.2485 115.389 81.3232 117.353C80.3725 118.323 79.4607 119.253 78.6993 120.165C77.3986 119.364 76.0981 118.563 74.7986 117.76C73.1564 116.745 70.3642 115.192 67.6309 113.671Z" fill="#68ACFF"/>
<path d="M67.6309 113.671C65.9265 112.724 64.2448 111.788 62.8787 111.004C62.8103 108.128 62.8952 105.281 63.4093 102.51C63.9525 99.5816 65.7234 96.9187 67.5461 94.178C69.5375 91.1836 71.5906 88.0963 72.1721 84.4682C72.4029 83.0283 72.4158 81.5548 72.2891 80.1041C72.1367 78.3572 70.5085 73.8091 68.9118 70.814C76.6017 70.4689 78.5568 66.8892 78.5568 66.8892C78.5568 66.8892 80.7655 59.9613 80.2045 55.4129C90.8882 52.1117 109.744 41.7524 118.751 34.5871C121.455 40.7662 124.338 48.1926 126.056 53.7372C123.8 55.2367 121.646 56.9304 119.503 58.6165C117.005 60.5811 114.52 62.5355 111.901 64.1601C109.429 65.6939 106.337 66.9821 103.116 68.3243C94.2656 72.0115 84.4364 76.1065 83.7905 86.8218C83.4268 92.8571 88.0027 100.013 91.8011 105.953L91.8022 105.955C92.2071 106.588 92.6032 107.207 92.9835 107.81C90.3868 107.697 87.9303 108.393 86.6484 110.796C85.3328 113.263 83.2485 115.389 81.3232 117.353C80.3725 118.323 79.4607 119.253 78.6993 120.165C77.3986 119.364 76.0981 118.563 74.7986 117.76C73.1564 116.745 70.3642 115.192 67.6309 113.671Z" fill="black" fill-opacity="0.2"/>
<path d="M102.177 110.796C101.563 110.302 99.4892 109.238 97.0107 108.52C96.7445 108.119 96.3447 107.594 95.9663 107.098L95.9653 107.097C95.5643 106.571 95.1875 106.077 95.0201 105.795C94.8889 105.574 94.7545 105.349 94.6174 105.118C90.7604 98.6434 84.831 88.6894 89.2487 81.7422C93.9297 74.381 101.4 71.3038 108.969 68.1857C112.649 66.6701 116.351 65.1449 119.768 63.1133C120.586 62.6275 123.885 59.9228 127.013 57.1176C127.518 59.1453 127.733 60.6624 127.539 61.3928C127.119 62.9779 122.783 67.1322 117.991 71.7235C110.225 79.1654 101.26 87.7555 105.827 88.4135C113.213 89.4774 140.892 113.399 142.337 124.005C143.783 134.61 124.865 158.159 124.865 158.159C124.865 158.159 119.433 162.057 112.595 165.639C119.693 152.236 115.793 145.941 114.985 145.132C114.454 144.6 113.904 144.106 113.346 143.629C112.604 142.994 111.849 142.385 111.086 141.792C109.35 140.441 107.596 139.126 105.827 137.842C108.234 136.73 110.161 135.456 110.889 134.134C112.79 130.678 114.297 122.465 114.297 122.465C114.077 118.421 107.244 114.07 103.854 111.913C103.068 111.412 102.467 111.03 102.177 110.796Z" fill="#68ACFF"/>
<path d="M102.177 110.796C101.563 110.302 99.4892 109.238 97.0107 108.52C96.7445 108.119 96.3447 107.594 95.9663 107.098L95.9653 107.097C95.5643 106.571 95.1875 106.077 95.0201 105.795C94.8889 105.574 94.7545 105.349 94.6174 105.118C90.7604 98.6434 84.831 88.6894 89.2487 81.7422C93.9297 74.381 101.4 71.3038 108.969 68.1857C112.649 66.6701 116.351 65.1449 119.768 63.1133C120.586 62.6275 123.885 59.9228 127.013 57.1176C127.518 59.1453 127.733 60.6624 127.539 61.3928C127.119 62.9779 122.783 67.1322 117.991 71.7235C110.225 79.1654 101.26 87.7555 105.827 88.4135C113.213 89.4774 140.892 113.399 142.337 124.005C143.783 134.61 124.865 158.159 124.865 158.159C124.865 158.159 119.433 162.057 112.595 165.639C119.693 152.236 115.793 145.941 114.985 145.132C114.454 144.6 113.904 144.106 113.346 143.629C112.604 142.994 111.849 142.385 111.086 141.792C109.35 140.441 107.596 139.126 105.827 137.842C108.234 136.73 110.161 135.456 110.889 134.134C112.79 130.678 114.297 122.465 114.297 122.465C114.077 118.421 107.244 114.07 103.854 111.913C103.068 111.412 102.467 111.03 102.177 110.796Z" fill="black" fill-opacity="0.2"/>
</g>
<defs>
<filter id="filter0_d_6_15" x="0.111816" y="0.830566" width="146.304" height="178.671" filterUnits="userSpaceOnUse" color-interpolation-filters="sRGB">
<feFlood flood-opacity="0" result="BackgroundImageFix"/>
<feColorMatrix in="SourceAlpha" type="matrix" values="0 0 0 0 0 0 0 0 0 0 0 0 0 0 0 0 0 0 127 0" result="hardAlpha"/>
<feOffset dy="4"/>
<feGaussianBlur stdDeviation="2"/>
<feComposite in2="hardAlpha" operator="out"/>
<feColorMatrix type="matrix" values="0 0 0 0 0 0 0 0 0 0 0 0 0 0 0 0 0 0 0.25 0"/>
<feBlend mode="normal" in2="BackgroundImageFix" result="effect1_dropShadow_6_15"/>
<feBlend mode="normal" in="SourceGraphic" in2="effect1_dropShadow_6_15" result="shape"/>
</filter>
</defs>
</svg>
