<svg width="227" height="246" viewBox="0 0 227 246" fill="none" xmlns="http://www.w3.org/2000/svg">
<g filter="url(#filter0_d_12_24)">
<path d="M4.66772 36.7309C4.66772 16.8487 20.7855 0.730957 40.6677 0.730957H186.119C206.001 0.730957 222.119 16.8487 222.119 36.731V201.269C222.119 221.151 206.001 237.269 186.119 237.269H40.6678C20.7855 237.269 4.66772 221.151 4.66772 201.269V36.7309Z" fill="#CFE3F1"/>
<path d="M94.0061 36.7863C101.665 35.5667 108.019 34.5551 110.647 33.8509C114.886 32.7151 124.172 36.9344 133.017 42.0692C128.337 43.971 118.673 44.9132 108.077 45.9462C87.2279 47.9788 62.7682 50.3634 65.5463 61.1026C68.2675 71.6219 81.1274 77.8667 90.4596 82.3985C90.7939 82.5608 91.1236 82.7209 91.4482 82.879C89.9599 84.6447 88.9339 86.528 88.4552 88.163C87.0104 93.0975 92.5234 99.2977 92.5234 99.2977C92.5234 99.2977 97.8632 103.153 106.16 103.627C106.302 104.287 106.508 105.07 106.734 105.93C107.588 109.174 108.726 113.5 107.798 116.317C106.706 119.633 104.536 122.327 102.388 124.993C99.6209 128.427 96.8912 131.815 96.5502 136.427C96.323 139.499 96.7953 143.148 97.2807 146.898C98.1071 153.282 98.9715 159.959 96.4865 164.585C94.297 168.66 91.1971 170.982 86.327 172.16C80.7308 173.513 77.5495 174.909 75.2774 180.839C74.167 183.736 78.1156 188.226 79.1106 192.664C79.1106 192.664 69.5567 191.871 60.7063 188.555C55.8242 186.727 51.0615 181.604 56.6593 179.324C72.405 172.91 78.7118 161.869 82.2306 135.344C83.3964 126.556 57.9145 105.699 49.6035 99.1061L49.8146 97.1451C49.8146 97.1451 47.7158 52.9075 49.8146 47.4243C51.2826 43.5891 76.1806 39.6246 94.0061 36.7863Z" fill="#117CFF"/>
<path d="M94.0061 36.7863C101.665 35.5667 108.019 34.5551 110.647 33.8509C114.886 32.7151 124.172 36.9344 133.017 42.0692C128.337 43.971 118.673 44.9132 108.077 45.9462C87.2279 47.9788 62.7682 50.3634 65.5463 61.1026C68.2675 71.6219 81.1274 77.8667 90.4596 82.3985C90.7939 82.5608 91.1236 82.7209 91.4482 82.879C89.9599 84.6447 88.9339 86.528 88.4552 88.163C87.0104 93.0975 92.5234 99.2977 92.5234 99.2977C92.5234 99.2977 97.8632 103.153 106.16 103.627C106.302 104.287 106.508 105.07 106.734 105.93C107.588 109.174 108.726 113.5 107.798 116.317C106.706 119.633 104.536 122.327 102.388 124.993C99.6209 128.427 96.8912 131.815 96.5502 136.427C96.323 139.499 96.7953 143.148 97.2807 146.898C98.1071 153.282 98.9715 159.959 96.4865 164.585C94.297 168.66 91.1971 170.982 86.327 172.16C80.7308 173.513 77.5495 174.909 75.2774 180.839C74.167 183.736 78.1156 188.226 79.1106 192.664C79.1106 192.664 69.5567 191.871 60.7063 188.555C55.8242 186.727 51.0615 181.604 56.6593 179.324C72.405 172.91 78.7118 161.869 82.2306 135.344C83.3964 126.556 57.9145 105.699 49.6035 99.1061L49.8146 97.1451C49.8146 97.1451 47.7158 52.9075 49.8146 47.4243C51.2826 43.5891 76.1806 39.6246 94.0061 36.7863Z" fill="black" fill-opacity="0.2"/>
<path d="M113.909 47.6488C117.834 47.31 130.469 46.2197 136.226 43.9821C144.368 48.9603 151.527 54.2689 153.134 56.2124C154.107 57.39 155.736 60.5019 157.562 64.4769C154.586 66.1912 150.808 68.454 146.758 70.8796L146.753 70.883C136.693 76.9082 124.958 83.9371 119.669 86.0607C116.703 80.0565 105.406 76.6305 105.406 76.6305C101.011 76.3411 97.2354 77.8796 94.3467 80.104C84.2 75.3944 73.2668 69.1869 70.0971 60.411C67.3923 52.9221 112.742 47.7577 112.742 47.7577C112.837 47.7412 113.251 47.7056 113.909 47.6488Z" fill="#117CFF"/>
<path d="M113.909 47.6488C117.834 47.31 130.469 46.2197 136.226 43.9821C144.368 48.9603 151.527 54.2689 153.134 56.2124C154.107 57.39 155.736 60.5019 157.562 64.4769C154.586 66.1912 150.808 68.454 146.758 70.8796L146.753 70.883C136.693 76.9082 124.958 83.9371 119.669 86.0607C116.703 80.0565 105.406 76.6305 105.406 76.6305C101.011 76.3411 97.2354 77.8796 94.3467 80.104C84.2 75.3944 73.2668 69.1869 70.0971 60.411C67.3923 52.9221 112.742 47.7577 112.742 47.7577C112.837 47.7412 113.251 47.7056 113.909 47.6488Z" fill="black" fill-opacity="0.2"/>
<path d="M48.6485 107.979C52.0242 111.375 56.3604 114.509 60.7063 117.648C70.9998 125.086 81.3471 132.562 79.1106 143.666C77.6569 150.884 71.3091 165.466 65.5463 170.676C34.8223 198.454 45.5814 134.829 48.2018 111.948C48.3737 110.446 48.5266 109.111 48.6485 107.979Z" fill="#117CFF"/>
<path d="M48.6485 107.979C52.0242 111.375 56.3604 114.509 60.7063 117.648C70.9998 125.086 81.3471 132.562 79.1106 143.666C77.6569 150.884 71.3091 165.466 65.5463 170.676C34.8223 198.454 45.5814 134.829 48.2018 111.948C48.3737 110.446 48.5266 109.111 48.6485 107.979Z" fill="black" fill-opacity="0.2"/>
<path d="M82.2306 193.353C89.3849 194.784 121.197 200.454 131.09 203.798C136.29 205.555 144.232 202.731 151.123 199.292L151.586 198.284C152.576 196.133 153.527 194.067 153.755 193.353C155.009 189.418 154.73 187.634 154.452 186.336C153.459 181.69 150.715 180.238 148.034 178.818C147.12 178.334 146.212 177.854 145.384 177.252C143.41 175.818 141.42 174.414 139.419 173.035C137.287 173.639 135.229 174.084 133.595 174.315C128.263 175.07 118.549 163.319 117 158.553C116.034 157.953 115.068 157.354 114.103 156.755C112.389 155.692 110.576 154.813 108.76 153.934C106.922 153.043 105.081 152.151 103.339 151.066C103.562 155.924 103.567 160.754 102.048 165.331C100.282 170.65 94.0501 172.764 87.9438 174.837C79.5832 177.674 78.331 182.563 82.2306 193.353Z" fill="#117CFF"/>
<path d="M82.2306 193.353C89.3849 194.784 121.197 200.454 131.09 203.798C136.29 205.555 144.232 202.731 151.123 199.292L151.586 198.284C152.576 196.133 153.527 194.067 153.755 193.353C155.009 189.418 154.73 187.634 154.452 186.336C153.459 181.69 150.715 180.238 148.034 178.818C147.12 178.334 146.212 177.854 145.384 177.252C143.41 175.818 141.42 174.414 139.419 173.035C137.287 173.639 135.229 174.084 133.595 174.315C128.263 175.07 118.549 163.319 117 158.553C116.034 157.953 115.068 157.354 114.103 156.755C112.389 155.692 110.576 154.813 108.76 153.934C106.922 153.043 105.081 152.151 103.339 151.066C103.562 155.924 103.567 160.754 102.048 165.331C100.282 170.65 94.0501 172.764 87.9438 174.837C79.5832 177.674 78.331 182.563 82.2306 193.353Z" fill="black" fill-opacity="0.2"/>
<path d="M107.76 146.505C106.056 145.557 104.374 144.622 103.008 143.838C102.94 140.962 103.025 138.115 103.539 135.344C104.082 132.416 105.853 129.753 107.675 127.012C109.667 124.018 111.72 120.93 112.302 117.302C112.532 115.862 112.545 114.389 112.419 112.938C112.266 111.191 110.638 106.643 109.041 103.648C116.731 103.303 118.686 99.7232 118.686 99.7232C118.686 99.7232 120.895 92.7953 120.334 88.2469C131.018 84.9457 149.874 74.5864 158.88 67.421C161.585 73.6002 164.467 81.0266 166.185 86.5711C163.929 88.0707 161.776 89.7644 159.632 91.4505C157.134 93.4151 154.649 95.3695 152.031 96.9941C149.559 98.5279 146.467 99.8161 143.245 101.158C134.395 104.845 124.566 108.941 123.92 119.656C123.556 125.691 128.132 132.847 131.931 138.787L131.932 138.789C132.337 139.422 132.733 140.041 133.113 140.644C130.516 140.531 128.06 141.227 126.778 143.63C125.462 146.097 123.378 148.223 121.453 150.187C120.502 151.157 119.59 152.087 118.829 152.999C117.528 152.198 116.227 151.397 114.928 150.594C113.286 149.579 110.494 148.026 107.76 146.505Z" fill="#117CFF"/>
<path d="M107.76 146.505C106.056 145.557 104.374 144.622 103.008 143.838C102.94 140.962 103.025 138.115 103.539 135.344C104.082 132.416 105.853 129.753 107.675 127.012C109.667 124.018 111.72 120.93 112.302 117.302C112.532 115.862 112.545 114.389 112.419 112.938C112.266 111.191 110.638 106.643 109.041 103.648C116.731 103.303 118.686 99.7232 118.686 99.7232C118.686 99.7232 120.895 92.7953 120.334 88.2469C131.018 84.9457 149.874 74.5864 158.88 67.421C161.585 73.6002 164.467 81.0266 166.185 86.5711C163.929 88.0707 161.776 89.7644 159.632 91.4505C157.134 93.4151 154.649 95.3695 152.031 96.9941C149.559 98.5279 146.467 99.8161 143.245 101.158C134.395 104.845 124.566 108.941 123.92 119.656C123.556 125.691 128.132 132.847 131.931 138.787L131.932 138.789C132.337 139.422 132.733 140.041 133.113 140.644C130.516 140.531 128.06 141.227 126.778 143.63C125.462 146.097 123.378 148.223 121.453 150.187C120.502 151.157 119.59 152.087 118.829 152.999C117.528 152.198 116.227 151.397 114.928 150.594C113.286 149.579 110.494 148.026 107.76 146.505Z" fill="black" fill-opacity="0.2"/>
<path d="M142.307 143.63C141.693 143.136 139.619 142.072 137.14 141.354C136.874 140.953 136.474 140.428 136.096 139.932L136.095 139.931C135.694 139.405 135.317 138.911 135.15 138.629C135.018 138.408 134.884 138.183 134.747 137.952C130.89 131.477 124.96 121.523 129.378 114.576C134.059 107.215 141.529 104.138 149.099 101.02C152.778 99.5041 156.481 97.9789 159.898 95.9473C160.715 95.4615 164.015 92.7567 167.142 89.9516C167.647 91.9793 167.862 93.4964 167.669 94.2268C167.248 95.8118 162.913 99.9662 158.121 104.558C150.354 111.999 141.389 120.59 145.956 121.247C153.342 122.311 181.021 146.233 182.467 156.839C183.912 167.444 164.995 190.993 164.995 190.993C164.995 190.993 159.562 194.891 152.725 198.473C159.822 185.069 155.922 178.775 155.115 177.966C154.584 177.434 154.034 176.94 153.476 176.463C152.733 175.828 151.978 175.219 151.215 174.626C149.479 173.275 147.725 171.96 145.956 170.676C148.363 169.564 150.291 168.29 151.018 166.968C152.919 163.512 154.427 155.299 154.427 155.299C154.206 151.255 147.373 146.904 143.984 144.747C143.198 144.246 142.597 143.864 142.307 143.63Z" fill="#117CFF"/>
<path d="M142.307 143.63C141.693 143.136 139.619 142.072 137.14 141.354C136.874 140.953 136.474 140.428 136.096 139.932L136.095 139.931C135.694 139.405 135.317 138.911 135.15 138.629C135.018 138.408 134.884 138.183 134.747 137.952C130.89 131.477 124.96 121.523 129.378 114.576C134.059 107.215 141.529 104.138 149.099 101.02C152.778 99.5041 156.481 97.9789 159.898 95.9473C160.715 95.4615 164.015 92.7567 167.142 89.9516C167.647 91.9793 167.862 93.4964 167.669 94.2268C167.248 95.8118 162.913 99.9662 158.121 104.558C150.354 111.999 141.389 120.59 145.956 121.247C153.342 122.311 181.021 146.233 182.467 156.839C183.912 167.444 164.995 190.993 164.995 190.993C164.995 190.993 159.562 194.891 152.725 198.473C159.822 185.069 155.922 178.775 155.115 177.966C154.584 177.434 154.034 176.94 153.476 176.463C152.733 175.828 151.978 175.219 151.215 174.626C149.479 173.275 147.725 171.96 145.956 170.676C148.363 169.564 150.291 168.29 151.018 166.968C152.919 163.512 154.427 155.299 154.427 155.299C154.206 151.255 147.373 146.904 143.984 144.747C143.198 144.246 142.597 143.864 142.307 143.63Z" fill="black" fill-opacity="0.2"/>
</g>
<defs>
<filter id="filter0_d_12_24" x="0.667725" y="0.730957" width="225.451" height="244.538" filterUnits="userSpaceOnUse" color-interpolation-filters="sRGB">
<feFlood flood-opacity="0" result="BackgroundImageFix"/>
<feColorMatrix in="SourceAlpha" type="matrix" values="0 0 0 0 0 0 0 0 0 0 0 0 0 0 0 0 0 0 127 0" result="hardAlpha"/>
<feOffset dy="4"/>
<feGaussianBlur stdDeviation="2"/>
<feComposite in2="hardAlpha" operator="out"/>
<feColorMatrix type="matrix" values="0 0 0 0 0 0 0 0 0 0 0 0 0 0 0 0 0 0 0.25 0"/>
<feBlend mode="normal" in2="BackgroundImageFix" result="effect1_dropShadow_12_24"/>
<feBlend mode="normal" in="SourceGraphic" in2="effect1_dropShadow_12_24" result="shape"/>
</filter>
</defs>
</svg>
